<?xml version="1.0" standalone="no"?>
<!DOCTYPE svg PUBLIC "-//W3C//DTD SVG 20010904//EN"
 "http://www.w3.org/TR/2001/REC-SVG-20010904/DTD/svg10.dtd">
<svg version="1.0" xmlns="http://www.w3.org/2000/svg"
 width="1000.000000pt" height="1000.000000pt" viewBox="0 0 1000.000000 1000.000000"
 preserveAspectRatio="xMidYMid meet">
<metadata>
Created by potrace 1.14, written by Peter Selinger 2001-2017
</metadata>
<g transform="translate(0.000000,1000.000000) scale(0.100000,-0.100000)"
fill="#000000" stroke="none">
<path d="M2875 7592 c-3 -3 -5 -137 -5 -298 l0 -293 -87 7 c-156 11 -373 5
-478 -13 -258 -46 -445 -105 -642 -204 -97 -49 -288 -171 -368 -236 -44 -35
-260 -248 -291 -285 -21 -26 -98 -127 -112 -145 -36 -51 -72 -104 -72 -108 0
-3 -19 -38 -43 -79 -101 -173 -200 -447 -231 -638 -3 -19 -8 -46 -10 -60 -16
-84 -19 -147 -20 -330 0 -113 3 -227 7 -255 29 -188 82 -394 134 -515 125
-295 260 -499 463 -700 136 -136 148 -146 265 -230 100 -72 123 -87 145 -97 8
-4 17 -9 20 -13 10 -12 302 -150 330 -156 3 0 12 -3 20 -7 22 -9 113 -38 130
-42 8 -2 43 -11 78 -20 71 -18 146 -33 212 -41 25 -2 63 -7 85 -10 96 -13 413
-6 505 11 8 1 35 6 60 10 163 25 434 115 590 196 42 21 80 39 85 39 6 0 150
-140 320 -311 171 -171 335 -330 365 -353 58 -45 161 -91 232 -104 24 -5 79
-7 123 -6 230 7 430 155 506 375 29 83 35 229 13 314 -38 146 -51 162 -422
536 l-343 346 49 99 c42 85 121 277 126 309 1 6 4 15 7 20 4 6 10 24 14 40 55
227 66 319 68 560 2 222 -4 289 -48 490 -46 215 -157 473 -291 676 -59 90
-141 197 -183 240 -9 9 -28 29 -42 45 -156 172 -392 343 -642 462 -102 49
-106 53 -97 76 5 13 6 26 4 29 -3 3 -5 78 -4 168 1 90 1 171 1 179 0 8 0 61 0
117 l-1 102 -56 17 c-31 9 -64 18 -73 19 -9 2 -16 4 -16 5 0 1 -11 4 -25 6
-14 3 -41 9 -60 14 -34 9 -191 35 -258 43 -17 2 -34 1 -37 -1z m-67 -1177 l62
-8 0 -908 0 -909 -704 0 -705 0 29 -77 c57 -155 158 -322 253 -417 l32 -31
810 0 810 0 0 268 c0 147 4 267 8 267 5 0 5 5 2 10 -6 9 -7 40 -4 160 0 18 0
777 0 805 0 11 0 52 0 90 0 39 0 77 0 85 0 8 0 98 0 200 0 102 0 200 -1 218 0
17 2 32 6 32 22 0 183 -130 273 -221 113 -112 201 -230 266 -357 43 -82 85
-174 89 -195 2 -6 6 -19 9 -27 7 -19 38 -129 43 -153 2 -10 5 -26 8 -35 11
-41 28 -212 28 -292 0 -167 -41 -406 -91 -525 -79 -187 -104 -233 -191 -356
-64 -91 -200 -237 -280 -301 -189 -149 -437 -266 -645 -303 -16 -3 -37 -8 -45
-10 -103 -28 -421 -23 -565 9 -103 23 -191 50 -272 84 -80 34 -199 97 -224
118 -8 8 -20 14 -25 14 -6 0 -19 8 -30 18 -11 9 -35 28 -54 42 -136 96 -298
278 -392 440 -65 112 -138 281 -154 359 -3 12 -11 51 -19 85 -8 33 -18 86 -22
116 -10 71 -10 361 1 420 4 25 12 68 17 95 11 63 81 279 91 283 5 2 8 8 8 14
0 16 68 146 108 207 86 133 222 285 318 357 21 16 48 37 59 47 25 23 161 105
235 142 59 30 252 101 297 110 73 14 202 35 233 37 62 6 263 1 328 -7z"/>
<path d="M2075 5726 c-27 -7 -60 -18 -72 -24 -13 -7 -23 -9 -23 -5 0 4 -4 4
-8 -2 -4 -5 -29 -25 -57 -44 -178 -119 -241 -370 -144 -571 94 -194 329 -296
544 -236 50 14 135 67 183 114 146 142 180 359 83 538 -18 33 -42 71 -55 86
-56 64 -170 132 -241 145 -63 11 -162 10 -210 -1z"/>
<path d="M4555 6944 c-8 -9 -13 -164 -6 -206 0 -4 164 -9 363 -10 l361 -3 1
-315 c2 -357 5 -379 76 -462 93 -108 261 -134 423 -65 38 16 38 16 47 -9 27
-71 2 -124 -70 -149 -3 -1 -14 -6 -24 -10 -29 -13 -213 -10 -276 4 -30 7 -66
15 -80 17 -55 11 -171 78 -224 131 -99 97 -160 261 -159 426 1 37 -2 67 -6 67
-3 1 -85 1 -181 2 l-175 0 3 -48 c11 -213 73 -404 181 -562 53 -77 181 -202
208 -202 6 0 13 -4 15 -8 3 -9 130 -71 183 -90 35 -13 111 -34 140 -39 11 -2
34 -6 50 -9 17 -4 104 -8 195 -10 183 -4 251 6 346 53 109 53 167 139 188 282
13 89 13 115 1 236 -6 56 -10 64 -63 121 -31 33 -83 89 -114 123 l-57 63 -28
-16 c-96 -54 -228 -82 -252 -52 -7 9 -11 38 -9 78 l3 63 220 1 c235 1 254 -2
314 -55 56 -49 56 -42 61 -496 l5 -420 163 0 162 0 0 145 c2 872 4 844 -47
943 -55 109 -188 202 -301 210 -29 2 -55 7 -58 10 -3 3 -17 2 -30 -3 -15 -6
-26 -6 -30 1 -3 6 -11 6 -17 1 -13 -9 -74 -9 -83 1 -3 3 -17 2 -30 -3 -15 -6
-26 -6 -30 1 -3 6 -11 6 -17 1 -13 -9 -74 -9 -83 1 -3 3 -16 2 -28 -2 -23 -9
-73 -8 -82 1 -3 4 -18 3 -32 -1 -41 -11 -62 -3 -62 25 l0 24 1073 0 1074 0 1
-54 1 -54 -67 -20 c-37 -11 -184 -52 -327 -92 -143 -39 -271 -75 -285 -80 -14
-4 -63 -18 -110 -30 -47 -12 -92 -25 -100 -28 -8 -3 -17 -6 -20 -7 -3 0 -28
-7 -56 -13 l-50 -13 0 -266 1 -267 70 -13 c39 -7 90 -15 115 -19 25 -3 63 -10
85 -16 22 -6 51 -12 65 -15 45 -7 168 -43 237 -69 38 -14 75 -27 84 -29 30 -6
233 -108 297 -148 58 -37 62 -41 59 -72 -2 -19 -1 -37 2 -42 3 -5 84 -8 179
-8 l172 -1 0 678 0 678 63 0 64 0 -1 100 c-1 57 3 100 9 100 5 0 5 4 -1 10
-15 15 -3674 19 -3689 4z m3202 -869 c-1 -96 -2 -175 -3 -175 -1 0 -9 6 -16
13 -22 21 -150 85 -235 116 -88 32 -209 58 -282 60 -34 1 -24 8 39 25 30 8
127 35 215 61 88 26 170 48 182 51 12 2 32 8 45 13 56 23 55 26 55 -164z"/>
<path d="M5644 4973 c-7 -7 -18 -30 -25 -50 -6 -21 -25 -66 -40 -100 -52 -114
-104 -250 -114 -297 -3 -10 -9 -33 -14 -50 -38 -117 -46 -352 -18 -512 19
-106 64 -250 109 -343 112 -237 346 -473 578 -584 36 -17 70 -32 75 -33 6 -1
17 -5 27 -9 13 -5 28 24 86 172 l70 178 -36 13 c-43 14 -56 20 -135 58 -31 15
-62 33 -68 41 -7 7 -17 13 -23 13 -17 1 -117 97 -165 159 -201 258 -209 708
-18 1026 63 104 69 109 146 110 36 1 73 -2 81 -6 13 -6 15 -68 15 -468 l0
-461 25 -9 c14 -6 94 -33 178 -61 l152 -50 63 39 c94 60 291 189 302 198 18
15 144 93 151 93 4 0 3 -15 -1 -32 -21 -99 -22 -240 -2 -318 4 -14 9 -37 11
-51 5 -29 56 -161 65 -169 3 -3 19 -25 35 -50 35 -53 126 -144 195 -193 l48
-35 97 153 97 154 -44 40 c-82 75 -134 215 -135 361 -1 71 6 109 67 404 17 82
29 151 27 153 -7 8 -173 45 -201 45 -2 0 -28 6 -57 14 -75 20 -89 18 -144 -18
-27 -18 -102 -67 -167 -110 -66 -43 -123 -78 -127 -78 -5 0 -10 -3 -12 -8 -3
-7 -253 -172 -261 -172 -1 0 -3 143 -2 317 l0 318 525 0 525 0 0 103 c1 56 -2
106 -5 110 -3 4 -437 7 -964 7 -752 0 -962 -3 -972 -12z"/>
<path d="M8550 4974 c-41 -7 -88 -17 -105 -24 -67 -26 -105 -44 -105 -52 0 -4
-6 -8 -14 -8 -20 0 -126 -120 -126 -143 0 -6 -7 -30 -15 -52 -8 -22 -14 -65
-15 -96 -1 -175 112 -282 300 -284 175 -2 311 113 301 255 -3 36 -29 90 -44
90 -4 0 -6 4 -2 10 12 20 82 -24 104 -67 14 -28 8 -128 -12 -174 -27 -65 -83
-116 -135 -125 -44 -8 -115 -33 -147 -52 -37 -23 -84 -89 -91 -128 -31 -167
106 -292 295 -269 51 6 121 37 129 57 2 4 7 8 12 8 10 0 -12 -86 -30 -120 -12
-23 -57 -69 -69 -71 -3 0 -15 -3 -26 -6 -33 -8 -197 -5 -245 5 -246 52 -406
205 -501 479 -10 29 -16 53 -14 53 3 0 1 10 -4 23 -15 39 -30 172 -36 307 -1
47 -3 87 -4 91 -1 3 -74 5 -162 5 -152 -1 -162 -2 -169 -21 -9 -24 -5 -271 5
-335 48 -315 198 -593 401 -748 39 -30 211 -122 223 -120 3 1 13 -2 21 -5 102
-42 372 -63 485 -37 185 41 310 116 377 225 79 128 47 358 -67 490 -19 22 -35
42 -35 46 0 3 10 15 23 27 53 50 100 140 115 222 15 80 7 197 -18 263 -78 209
-326 325 -600 281z"/>
</g>
</svg>
