<svg version="1.2" xmlns="http://www.w3.org/2000/svg" viewBox="0 0 3500 2000" width="1920" height="1097">
	<title>NA_October_10-ai</title>
	<defs>
		<clipPath clipPathUnits="userSpaceOnUse" id="cp1">
			<path d="m416.57 1849.58h2636.55 4.25c80.59-183.69 112.62-388.43 86.36-587.3-13.55-102.52-43.93-207.43-114.88-282.65-44.98-47.68-103.71-80.54-164.88-104.11-150.04-57.81-320.09-62.07-472.83-11.83-100.41 33.03-201.51 89.58-305.13 68.74-45.15-9.08-86.12-32.45-124.15-58.41-203.31-138.78-358.95-365.92-599.49-418.2-155.56-33.81-321.35 16.2-450.84 108.81-129.49 92.6-226.38 224.22-304.29 363.05-157.34 280.36-237.33 603.81-190.67 921.9z"/>
		</clipPath>
		<clipPath clipPathUnits="userSpaceOnUse" id="cp2">
			<path d="m2155.52 1145.15h-1218.97c-13.21 0-23.92-10.7-23.92-23.91v-807.18c0-13.21 10.71-23.92 23.92-23.92h1218.97c13.21 0 23.92 10.71 23.92 23.92v807.18c0 13.21-10.71 23.91-23.92 23.91z"/>
		</clipPath>
		<clipPath clipPathUnits="userSpaceOnUse" id="cp3">
			<path d="m1604.01 1201.5c-64.17 110.9-206.09 148.79-316.98 84.62-110.9-64.17-148.79-206.08-84.62-316.98 64.17-110.9 206.08-148.78 316.98-84.62 110.9 64.17 148.78 206.09 84.62 316.98z"/>
		</clipPath>
	</defs>
	<style>
		.s0 { fill: #f4f7fd } 
		.s1 { opacity: .1;fill: #3c94f8 } 
		.s2 { fill: #cce6ff } 
		.s3 { fill: #102a54 } 
		.s4 { fill: #3c94f8 } 
		.s5 { fill: #ffffff } 
		.s6 { opacity: .6;fill: #cce6ff } 
		.s7 { opacity: .3;fill: #3c94f8 } 
		.s8 { opacity: .2;fill: #3c94f8 } 
		.s9 { fill: #6cb597 } 
		.s10 { fill: #ffc0b1 } 
		.s11 { fill: #0c203f } 
		.s12 { fill: #7fc0ff } 
		.s13 { fill: #80c0ff } 
	</style>
	<g id="_Artboards_">
	</g>
	<g id="Layer 1">
		<g id="&lt;Group&gt;">
			<g id="&lt;Group&gt;">
				<path id="&lt;Path&gt;" class="s0" d="m2063.8 430.4c-1.8 14.8-2.5 29.6-2 44.1 1.8 55 27.2 120.6 78.8 147.2 64.3 33.3 145.1-1.2 212.6 20.8 104.6 34 191.5 172.4 310.3 96.3 87.6-56.1 119.4-190.5 100.8-287.1-32.6-169.9-186.5-298.9-358.7-305.3-110.4-4.1-219.2 36.3-282.8 128.3-30.6 44.2-52.3 100.4-59 155.7z"/>
				<path id="&lt;Path&gt;" class="s0" d="m416.6 1849.6h2636.5 4.3c80.6-183.7 112.6-388.5 86.3-587.3-13.5-102.5-43.9-207.4-114.9-282.7-44.9-47.7-103.7-80.5-164.8-104.1-150.1-57.8-320.1-62-472.9-11.8-100.4 33-201.5 89.6-305.1 68.7-45.1-9.1-86.1-32.4-124.1-58.4-203.4-138.8-359-365.9-599.5-418.2-155.6-33.8-321.4 16.2-450.9 108.8-129.5 92.6-226.3 224.3-304.3 363.1-157.3 280.3-237.3 603.8-190.6 921.9z"/>
				<g id="&lt;Clip Group&gt;" clip-path="url(#cp1)">
					<path id="&lt;Path&gt;" class="s1" d="m2636.6 1112c-133.3 82.5-243.2 196.9-353.8 308-68.3 68.5-140.5 138.2-231.7 170.6-67.6 24-141.1 25.7-212.8 21.9-124.1-6.6-247.5-29-366-66.4-144.7-45.7-281.9-113.6-428.2-154.1-215.6-59.7-448-57.2-662.3 7-6.7 168.4-14.3 337.3-21 505.8 187.6 14.4 375.8-5.3 563.6-16.6 667.7-40.2 1336 26.6 2004 3.4 87.1-3 176.3-3.6 262.8-14.4 3.1-14.4 1.7-31.2 2.1-46q0.6-25 1-50.1 0.6-50.1-0.2-100.2c-1-66.8-4-133.6-8.9-200.2-8.1-110.6-21.4-220.8-40-330.2-5.1-29.9-10.8-60-21.6-88.5-6.9-18.2-15.7-42.4-36.1-48.9-18.1-5.9-41.2-4.1-60.1-5.9-29.3-2.9-58.8-3-88.1-0.7-107.6 8.6-211.4 49-302.7 105.5z"/>
				</g>
			</g>
			<g id="&lt;Group&gt;">
				<path id="&lt;Path&gt;" class="s2" d="m2155.5 1145.2h-1219c-13.2 0-23.9-10.8-23.9-24v-807.1c0-13.3 10.7-24 23.9-24h1219c13.2 0 23.9 10.7 23.9 24v807.1c0 13.2-10.7 24-23.9 24z"/>
				<g id="&lt;Clip Group&gt;" clip-path="url(#cp2)">
					<path id="&lt;Path&gt;" class="s3" d="m2236.9 383.5h-1386.6v-142h1386.6z"/>
				</g>
				<g id="&lt;Group&gt;">
					<path id="&lt;Path&gt;" class="s4" d="m997 340.8c0 9.5-7.7 17.3-17.3 17.3-9.6 0-17.3-7.8-17.3-17.3 0-9.6 7.7-17.4 17.3-17.4 9.6 0 17.3 7.8 17.3 17.4z"/>
					<path id="&lt;Path&gt;" class="s5" d="m1059.9 340.8c0 9.5-7.7 17.3-17.3 17.3-9.6 0-17.3-7.8-17.3-17.3 0-9.6 7.7-17.4 17.3-17.4 9.6 0 17.3 7.8 17.3 17.4z"/>
					<path id="&lt;Path&gt;" class="s5" d="m1122.9 340.8c0 9.5-7.8 17.3-17.3 17.3-9.6 0-17.4-7.8-17.4-17.3 0-9.6 7.8-17.4 17.4-17.4 9.5 0 17.3 7.8 17.3 17.4z"/>
				</g>
				<path id="&lt;Compound Path&gt;" fill-rule="evenodd" class="s3" d="m2139.1 1137h-1206.4c-17.5 0-31.7-14.2-31.7-31.7v-794.6c0-17.5 14.2-31.7 31.7-31.7h1206.4c17.5 0 31.7 14.2 31.7 31.7v794.6c0 17.5-14.2 31.7-31.7 31.7zm-1206.4-855c-15.8 0-28.7 12.8-28.7 28.7v794.6c0 15.8 12.9 28.7 28.7 28.7h1206.4c15.8 0 28.7-12.9 28.7-28.7v-794.6c0-15.9-12.9-28.7-28.7-28.7z"/>
			</g>
			<g id="&lt;Group&gt;">
				<g id="&lt;Group&gt;">
					<path id="&lt;Path&gt;" class="s0" d="m1297.7 1062.4h-316.4c-6.8 0-12.4-5.5-12.4-12.3v-577.8c0-6.8 5.6-12.3 12.4-12.3h316.4c6.8 0 12.3 5.5 12.3 12.3v577.8c0 6.8-5.5 12.3-12.3 12.3z"/>
					<g id="&lt;Group&gt;">
						<path id="&lt;Path&gt;" class="s2" d="m1116.5 656.8h-121.3c-3.1 0-5.7-2.5-5.7-5.6v-157.8c0-3.2 2.6-5.7 5.7-5.7h121.3c3.1 0 5.6 2.5 5.6 5.7v157.8c0 3.1-2.5 5.6-5.6 5.6z"/>
						<g id="&lt;Group&gt;">
							<path id="&lt;Path&gt;" class="s2" d="m1166.6 498.3c0 5.9-4.7 10.6-10.6 10.6-5.8 0-10.6-4.7-10.6-10.6 0-5.8 4.8-10.6 10.6-10.6 5.9 0 10.6 4.8 10.6 10.6z"/>
							<path id="&lt;Path&gt;" class="s2" d="m1289.6 494.5h-101.6c-1.3 0-2.3-1-2.3-2.3 0-1.2 1-2.2 2.3-2.2h101.6c1.3 0 2.3 1 2.3 2.2 0 1.3-1 2.3-2.3 2.3z"/>
							<path id="&lt;Path&gt;" class="s2" d="m1289.6 506.6h-101.6c-1.3 0-2.3-1-2.3-2.2 0-1.3 1-2.3 2.3-2.3h101.6c1.3 0 2.3 1 2.3 2.3 0 1.2-1 2.2-2.3 2.2z"/>
							<path id="&lt;Path&gt;" class="s2" d="m1289.6 518.8h-101.6c-1.3 0-2.3-1-2.3-2.3 0-1.2 1-2.3 2.3-2.3h101.6c1.3 0 2.3 1.1 2.3 2.3 0 1.3-1 2.3-2.3 2.3z"/>
						</g>
						<g id="&lt;Group&gt;">
							<path id="&lt;Path&gt;" class="s2" d="m1166.6 542.4c0 5.8-4.7 10.6-10.6 10.6-5.8 0-10.6-4.8-10.6-10.6 0-5.9 4.8-10.6 10.6-10.6 5.9 0 10.6 4.7 10.6 10.6z"/>
							<path id="&lt;Path&gt;" class="s2" d="m1289.6 538.6h-101.6c-1.3 0-2.3-1.1-2.3-2.3 0-1.3 1-2.3 2.3-2.3h101.6c1.3 0 2.3 1 2.3 2.3 0 1.2-1 2.3-2.3 2.3z"/>
							<path id="&lt;Path&gt;" class="s2" d="m1289.6 550.7h-101.6c-1.3 0-2.3-1-2.3-2.3 0-1.2 1-2.2 2.3-2.2h101.6c1.3 0 2.3 1 2.3 2.2 0 1.3-1 2.3-2.3 2.3z"/>
							<path id="&lt;Path&gt;" class="s2" d="m1289.6 562.8h-101.6c-1.3 0-2.3-1-2.3-2.2 0-1.3 1-2.3 2.3-2.3h101.6c1.3 0 2.3 1 2.3 2.3 0 1.2-1 2.2-2.3 2.2z"/>
						</g>
						<g id="&lt;Group&gt;">
							<path id="&lt;Path&gt;" class="s2" d="m1166.6 586.4c0 5.9-4.7 10.6-10.6 10.6-5.8 0-10.6-4.7-10.6-10.6 0-5.8 4.8-10.6 10.6-10.6 5.9 0 10.6 4.8 10.6 10.6z"/>
							<path id="&lt;Path&gt;" class="s2" d="m1289.6 582.6h-101.6c-1.3 0-2.3-1-2.3-2.2 0-1.3 1-2.3 2.3-2.3h101.6c1.3 0 2.3 1 2.3 2.3 0 1.2-1 2.2-2.3 2.2z"/>
							<path id="&lt;Path&gt;" class="s2" d="m1289.6 594.7h-101.6c-1.3 0-2.3-1-2.3-2.2 0-1.3 1-2.3 2.3-2.3h101.6c1.3 0 2.3 1 2.3 2.3 0 1.2-1 2.2-2.3 2.2z"/>
							<path id="&lt;Path&gt;" class="s2" d="m1289.6 606.9h-101.6c-1.3 0-2.3-1-2.3-2.3 0-1.2 1-2.2 2.3-2.2h101.6c1.3 0 2.3 1 2.3 2.2 0 1.3-1 2.3-2.3 2.3z"/>
						</g>
						<g id="&lt;Group&gt;">
							<path id="&lt;Path&gt;" class="s2" d="m1166.6 630.5c0 5.8-4.7 10.6-10.6 10.6-5.8 0-10.6-4.8-10.6-10.6 0-5.9 4.8-10.6 10.6-10.6 5.9 0 10.6 4.7 10.6 10.6z"/>
							<path id="&lt;Path&gt;" class="s2" d="m1289.6 626.7h-101.6c-1.3 0-2.3-1-2.3-2.3 0-1.2 1-2.3 2.3-2.3h101.6c1.3 0 2.3 1.1 2.3 2.3 0 1.3-1 2.3-2.3 2.3z"/>
							<path id="&lt;Path&gt;" class="s2" d="m1289.6 638.8h-101.6c-1.3 0-2.3-1-2.3-2.3 0-1.2 1-2.2 2.3-2.2h101.6c1.3 0 2.3 1 2.3 2.2 0 1.3-1 2.3-2.3 2.3z"/>
							<path id="&lt;Path&gt;" class="s2" d="m1289.6 650.9h-101.6c-1.3 0-2.3-1-2.3-2.2 0-1.3 1-2.3 2.3-2.3h101.6c1.3 0 2.3 1 2.3 2.3 0 1.2-1 2.2-2.3 2.2z"/>
						</g>
					</g>
					<g id="&lt;Group&gt;">
						<path id="&lt;Path&gt;" class="s2" d="m1115.2 843.7h-121.3c-3.1 0-5.6-2.5-5.6-5.6v-157.9c0-3.1 2.5-5.6 5.6-5.6h121.3c3.1 0 5.7 2.5 5.7 5.6v157.9c0 3.1-2.6 5.6-5.7 5.6z"/>
						<g id="&lt;Group&gt;">
							<path id="&lt;Path&gt;" class="s2" d="m1165.3 685.2c0 5.8-4.7 10.6-10.5 10.6-5.9 0-10.6-4.8-10.6-10.6 0-5.9 4.7-10.6 10.6-10.6 5.8 0 10.5 4.7 10.5 10.6z"/>
							<path id="&lt;Path&gt;" class="s2" d="m1288.4 681.4h-101.7c-1.2 0-2.2-1-2.2-2.3 0-1.2 1-2.2 2.2-2.2h101.7c1.2 0 2.2 1 2.2 2.2 0 1.3-1 2.3-2.2 2.3z"/>
							<path id="&lt;Path&gt;" class="s2" d="m1288.4 693.5h-101.7c-1.2 0-2.2-1-2.2-2.3 0-1.2 1-2.2 2.2-2.2h101.7c1.2 0 2.2 1 2.2 2.2 0 1.3-1 2.3-2.2 2.3z"/>
							<path id="&lt;Path&gt;" class="s2" d="m1288.4 705.6h-101.7c-1.2 0-2.2-1-2.2-2.2 0-1.3 1-2.3 2.2-2.3h101.7c1.2 0 2.2 1 2.2 2.3 0 1.2-1 2.2-2.2 2.2z"/>
						</g>
						<g id="&lt;Group&gt;">
							<path id="&lt;Path&gt;" class="s2" d="m1165.3 729.2c0 5.9-4.7 10.6-10.5 10.6-5.9 0-10.6-4.7-10.6-10.6 0-5.8 4.7-10.6 10.6-10.6 5.8 0 10.5 4.8 10.5 10.6z"/>
							<path id="&lt;Path&gt;" class="s2" d="m1288.4 725.4h-101.7c-1.2 0-2.2-1-2.2-2.2 0-1.3 1-2.3 2.2-2.3h101.7c1.2 0 2.2 1 2.2 2.3 0 1.2-1 2.2-2.2 2.2z"/>
							<path id="&lt;Path&gt;" class="s2" d="m1288.4 737.6h-101.7c-1.2 0-2.2-1-2.2-2.3 0-1.2 1-2.3 2.2-2.3h101.7c1.2 0 2.2 1.1 2.2 2.3 0 1.3-1 2.3-2.2 2.3z"/>
							<path id="&lt;Path&gt;" class="s2" d="m1288.4 749.7h-101.7c-1.2 0-2.2-1-2.2-2.3 0-1.2 1-2.2 2.2-2.2h101.7c1.2 0 2.2 1 2.2 2.2 0 1.3-1 2.3-2.2 2.3z"/>
						</g>
						<g id="&lt;Group&gt;">
							<path id="&lt;Path&gt;" class="s2" d="m1165.3 773.3c0 5.8-4.7 10.6-10.5 10.6-5.9 0-10.6-4.8-10.6-10.6 0-5.9 4.7-10.6 10.6-10.6 5.8 0 10.5 4.7 10.5 10.6z"/>
							<path id="&lt;Path&gt;" class="s2" d="m1288.4 769.5h-101.7c-1.2 0-2.2-1-2.2-2.3 0-1.2 1-2.2 2.2-2.2h101.7c1.2 0 2.2 1 2.2 2.2 0 1.3-1 2.3-2.2 2.3z"/>
							<path id="&lt;Path&gt;" class="s2" d="m1288.4 781.6h-101.7c-1.2 0-2.2-1-2.2-2.2 0-1.3 1-2.3 2.2-2.3h101.7c1.2 0 2.2 1 2.2 2.3 0 1.2-1 2.2-2.2 2.2z"/>
							<path id="&lt;Path&gt;" class="s2" d="m1288.4 793.8h-101.7c-1.2 0-2.2-1.1-2.2-2.3 0-1.3 1-2.3 2.2-2.3h101.7c1.2 0 2.2 1 2.2 2.3 0 1.2-1 2.3-2.2 2.3z"/>
						</g>
						<g id="&lt;Group&gt;">
							<path id="&lt;Path&gt;" class="s2" d="m1165.3 817.4c0 5.8-4.7 10.5-10.5 10.5-5.9 0-10.6-4.7-10.6-10.5 0-5.9 4.7-10.6 10.6-10.6 5.8 0 10.5 4.7 10.5 10.6z"/>
							<path id="&lt;Path&gt;" class="s2" d="m1288.4 813.5h-101.7c-1.2 0-2.2-1-2.2-2.2 0-1.3 1-2.3 2.2-2.3h101.7c1.2 0 2.2 1 2.2 2.3 0 1.2-1 2.2-2.2 2.2z"/>
							<path id="&lt;Path&gt;" class="s2" d="m1288.4 825.7h-101.7c-1.2 0-2.2-1-2.2-2.3 0-1.2 1-2.2 2.2-2.2h101.7c1.2 0 2.2 1 2.2 2.2 0 1.3-1 2.3-2.2 2.3z"/>
							<path id="&lt;Path&gt;" class="s2" d="m1288.4 837.8h-101.7c-1.2 0-2.2-1-2.2-2.3 0-1.2 1-2.2 2.2-2.2h101.7c1.2 0 2.2 1 2.2 2.2 0 1.3-1 2.3-2.2 2.3z"/>
						</g>
					</g>
					<g id="&lt;Group&gt;">
						<path id="&lt;Path&gt;" class="s2" d="m1114 1030.6h-121.3c-3.2 0-5.7-2.5-5.7-5.7v-157.8c0-3.1 2.5-5.6 5.7-5.6h121.3c3.1 0 5.6 2.5 5.6 5.6v157.8c0 3.2-2.5 5.7-5.6 5.7z"/>
						<g id="&lt;Group&gt;">
							<path id="&lt;Path&gt;" class="s2" d="m1164.1 872.1c0 5.8-4.8 10.5-10.6 10.5-5.9 0-10.6-4.7-10.6-10.5 0-5.9 4.7-10.6 10.6-10.6 5.8 0 10.6 4.7 10.6 10.6z"/>
							<path id="&lt;Path&gt;" class="s2" d="m1287.1 868.3h-101.6c-1.3 0-2.3-1.1-2.3-2.3 0-1.3 1-2.3 2.3-2.3h101.6c1.3 0 2.3 1 2.3 2.3 0 1.2-1 2.3-2.3 2.3z"/>
							<path id="&lt;Path&gt;" class="s2" d="m1287.1 880.4h-101.6c-1.3 0-2.3-1-2.3-2.3 0-1.2 1-2.2 2.3-2.2h101.6c1.3 0 2.3 1 2.3 2.2 0 1.3-1 2.3-2.3 2.3z"/>
							<path id="&lt;Path&gt;" class="s2" d="m1287.1 892.5h-101.6c-1.3 0-2.3-1-2.3-2.2 0-1.3 1-2.3 2.3-2.3h101.6c1.3 0 2.3 1 2.3 2.3 0 1.2-1 2.2-2.3 2.2z"/>
						</g>
						<g id="&lt;Group&gt;">
							<path id="&lt;Path&gt;" class="s2" d="m1164.1 916.1c0 5.9-4.8 10.6-10.6 10.6-5.9 0-10.6-4.7-10.6-10.6 0-5.8 4.7-10.6 10.6-10.6 5.8 0 10.6 4.8 10.6 10.6z"/>
							<path id="&lt;Path&gt;" class="s2" d="m1287.1 912.3h-101.6c-1.3 0-2.3-1-2.3-2.3 0-1.2 1-2.2 2.3-2.2h101.6c1.3 0 2.3 1 2.3 2.2 0 1.3-1 2.3-2.3 2.3z"/>
							<path id="&lt;Path&gt;" class="s2" d="m1287.1 924.4h-101.6c-1.3 0-2.3-1-2.3-2.2 0-1.3 1-2.3 2.3-2.3h101.6c1.3 0 2.3 1 2.3 2.3 0 1.2-1 2.2-2.3 2.2z"/>
							<path id="&lt;Path&gt;" class="s2" d="m1287.1 936.6h-101.6c-1.3 0-2.3-1-2.3-2.3 0-1.2 1-2.3 2.3-2.3h101.6c1.3 0 2.3 1.1 2.3 2.3 0 1.3-1 2.3-2.3 2.3z"/>
						</g>
						<g id="&lt;Group&gt;">
							<path id="&lt;Path&gt;" class="s2" d="m1164.1 960.2c0 5.8-4.8 10.6-10.6 10.6-5.9 0-10.6-4.8-10.6-10.6 0-5.9 4.7-10.6 10.6-10.6 5.8 0 10.6 4.7 10.6 10.6z"/>
							<path id="&lt;Path&gt;" class="s2" d="m1287.1 956.4h-101.6c-1.3 0-2.3-1-2.3-2.3 0-1.2 1-2.3 2.3-2.3h101.6c1.3 0 2.3 1.1 2.3 2.3 0 1.3-1 2.3-2.3 2.3z"/>
							<path id="&lt;Path&gt;" class="s2" d="m1287.1 968.5h-101.6c-1.3 0-2.3-1-2.3-2.3 0-1.2 1-2.2 2.3-2.2h101.6c1.3 0 2.3 1 2.3 2.2 0 1.3-1 2.3-2.3 2.3z"/>
							<path id="&lt;Path&gt;" class="s2" d="m1287.1 980.6h-101.6c-1.3 0-2.3-1-2.3-2.2 0-1.3 1-2.3 2.3-2.3h101.6c1.3 0 2.3 1 2.3 2.3 0 1.2-1 2.2-2.3 2.2z"/>
						</g>
						<g id="&lt;Group&gt;">
							<path id="&lt;Path&gt;" class="s2" d="m1164.1 1004.2c0 5.9-4.8 10.6-10.6 10.6-5.9 0-10.6-4.7-10.6-10.6 0-5.8 4.7-10.6 10.6-10.6 5.8 0 10.6 4.8 10.6 10.6z"/>
							<path id="&lt;Path&gt;" class="s2" d="m1287.1 1000.4h-101.6c-1.3 0-2.3-1-2.3-2.2 0-1.3 1-2.3 2.3-2.3h101.6c1.3 0 2.3 1 2.3 2.3 0 1.2-1 2.2-2.3 2.2z"/>
							<path id="&lt;Path&gt;" class="s2" d="m1287.1 1012.6h-101.6c-1.3 0-2.3-1.1-2.3-2.3 0-1.3 1-2.3 2.3-2.3h101.6c1.3 0 2.3 1 2.3 2.3 0 1.2-1 2.3-2.3 2.3z"/>
							<path id="&lt;Path&gt;" class="s2" d="m1287.1 1024.7h-101.6c-1.3 0-2.3-1-2.3-2.3 0-1.2 1-2.2 2.3-2.2h101.6c1.3 0 2.3 1 2.3 2.2 0 1.3-1 2.3-2.3 2.3z"/>
						</g>
					</g>
					<g id="&lt;Group&gt;">
						<path id="&lt;Path&gt;" class="s0" d="m1095.8 575.4h-82c-2.6 0-4.7-2.1-4.7-4.7v-64.3c0-2.6 2.1-4.7 4.7-4.7h82c2.6 0 4.8 2.1 4.8 4.7v64.3c0 2.6-2.2 4.7-4.8 4.7z"/>
						<path id="&lt;Path&gt;" class="s0" d="m1097.7 592.5h-85.8c-1.5 0-2.8-1.3-2.8-2.8v-0.5c0-1.5 1.3-2.8 2.8-2.8h85.8c1.6 0 2.9 1.3 2.9 2.8v0.5c0 1.5-1.3 2.8-2.9 2.8z"/>
						<path id="&lt;Path&gt;" class="s0" d="m1097.7 605.4h-85.8c-1.5 0-2.8-1.3-2.8-2.8v-0.5c0-1.5 1.3-2.8 2.8-2.8h85.8c1.6 0 2.9 1.3 2.9 2.8v0.5c0 1.5-1.3 2.8-2.9 2.8z"/>
						<path id="&lt;Path&gt;" class="s0" d="m1097.7 618.3h-85.8c-1.5 0-2.8-1.3-2.8-2.8v-0.5c0-1.5 1.3-2.8 2.8-2.8h85.8c1.6 0 2.9 1.3 2.9 2.8v0.5c0 1.5-1.3 2.8-2.9 2.8z"/>
						<path id="&lt;Path&gt;" class="s0" d="m1097.7 631.2h-85.8c-1.5 0-2.8-1.3-2.8-2.8v-0.5c0-1.5 1.3-2.8 2.8-2.8h85.8c1.6 0 2.9 1.3 2.9 2.8v0.5c0 1.5-1.3 2.8-2.9 2.8z"/>
						<path id="&lt;Path&gt;" class="s0" d="m1097.7 644.1h-85.8c-1.5 0-2.8-1.3-2.8-2.8v-0.5c0-1.5 1.3-2.8 2.8-2.8h85.8c1.6 0 2.9 1.3 2.9 2.8v0.5c0 1.5-1.3 2.8-2.9 2.8z"/>
					</g>
					<g id="&lt;Group&gt;">
						<path id="&lt;Path&gt;" class="s0" d="m1095.8 761.7h-82c-2.6 0-4.7-2.1-4.7-4.7v-64.3c0-2.6 2.1-4.7 4.7-4.7h82c2.6 0 4.8 2.1 4.8 4.7v64.3c0 2.6-2.2 4.7-4.8 4.7z"/>
						<path id="&lt;Path&gt;" class="s0" d="m1097.7 778.7h-85.8c-1.5 0-2.8-1.2-2.8-2.8v-0.4c0-1.6 1.3-2.8 2.8-2.8h85.8c1.6 0 2.9 1.2 2.9 2.8v0.4c0 1.6-1.3 2.8-2.9 2.8z"/>
						<path id="&lt;Path&gt;" class="s0" d="m1097.7 791.6h-85.8c-1.5 0-2.8-1.2-2.8-2.8v-0.4c0-1.6 1.3-2.8 2.8-2.8h85.8c1.6 0 2.9 1.2 2.9 2.8v0.4c0 1.6-1.3 2.8-2.9 2.8z"/>
						<path id="&lt;Path&gt;" class="s0" d="m1097.7 804.5h-85.8c-1.5 0-2.8-1.2-2.8-2.8v-0.4c0-1.6 1.3-2.8 2.8-2.8h85.8c1.6 0 2.9 1.2 2.9 2.8v0.4c0 1.6-1.3 2.8-2.9 2.8z"/>
						<path id="&lt;Path&gt;" class="s0" d="m1097.7 817.4h-85.8c-1.5 0-2.8-1.2-2.8-2.8v-0.4c0-1.6 1.3-2.8 2.8-2.8h85.8c1.6 0 2.9 1.2 2.9 2.8v0.4c0 1.6-1.3 2.8-2.9 2.8z"/>
						<path id="&lt;Path&gt;" class="s0" d="m1097.7 830.3h-85.8c-1.5 0-2.8-1.2-2.8-2.8v-0.4c0-1.6 1.3-2.8 2.8-2.8h85.8c1.6 0 2.9 1.2 2.9 2.8v0.4c0 1.6-1.3 2.8-2.9 2.8z"/>
					</g>
					<g id="&lt;Group&gt;">
						<path id="&lt;Path&gt;" class="s0" d="m1095.8 947.9h-82c-2.6 0-4.7-2.1-4.7-4.7v-64.3c0-2.6 2.1-4.7 4.7-4.7h82c2.6 0 4.8 2.1 4.8 4.7v64.3c0 2.6-2.2 4.7-4.8 4.7z"/>
						<path id="&lt;Path&gt;" class="s0" d="m1097.7 965h-85.8c-1.5 0-2.8-1.3-2.8-2.8v-0.5c0-1.5 1.3-2.8 2.8-2.8h85.8c1.6 0 2.9 1.3 2.9 2.8v0.5c0 1.5-1.3 2.8-2.9 2.8z"/>
						<path id="&lt;Path&gt;" class="s0" d="m1097.7 977.9h-85.8c-1.5 0-2.8-1.3-2.8-2.8v-0.5c0-1.5 1.3-2.8 2.8-2.8h85.8c1.6 0 2.9 1.3 2.9 2.8v0.5c0 1.5-1.3 2.8-2.9 2.8z"/>
						<path id="&lt;Path&gt;" class="s0" d="m1097.7 990.8h-85.8c-1.5 0-2.8-1.3-2.8-2.8v-0.5c0-1.5 1.3-2.8 2.8-2.8h85.8c1.6 0 2.9 1.3 2.9 2.8v0.5c0 1.5-1.3 2.8-2.9 2.8z"/>
						<path id="&lt;Path&gt;" class="s0" d="m1097.7 1003.7h-85.8c-1.5 0-2.8-1.3-2.8-2.8v-0.5c0-1.5 1.3-2.8 2.8-2.8h85.8c1.6 0 2.9 1.3 2.9 2.8v0.5c0 1.5-1.3 2.8-2.9 2.8z"/>
						<path id="&lt;Path&gt;" class="s0" d="m1097.7 1016.6h-85.8c-1.5 0-2.8-1.3-2.8-2.8v-0.5c0-1.5 1.3-2.8 2.8-2.8h85.8c1.6 0 2.9 1.3 2.9 2.8v0.5c0 1.5-1.3 2.8-2.9 2.8z"/>
					</g>
				</g>
				<g id="&lt;Group&gt;">
					<path id="&lt;Path&gt;" class="s0" d="m2090.6 1062.4h-316.4c-6.8 0-12.4-5.5-12.4-12.3v-577.8c0-6.8 5.6-12.3 12.4-12.3h316.4c6.8 0 12.3 5.5 12.3 12.3v577.8c0 6.8-5.5 12.3-12.3 12.3z"/>
					<g id="&lt;Group&gt;">
						<path id="&lt;Path&gt;" class="s2" d="m2072.8 487.7h-99c-1.8 0-3.3-1.4-3.3-3.2 0-1.8 1.5-3.3 3.3-3.3h99c1.8 0 3.2 1.5 3.2 3.3 0 1.8-1.4 3.2-3.2 3.2z"/>
						<path id="&lt;Path&gt;" class="s2" d="m2072.8 502.7h-99c-1.8 0-3.3-1.5-3.3-3.3 0-1.8 1.5-3.2 3.3-3.2h99c1.8 0 3.2 1.4 3.2 3.2 0 1.8-1.4 3.3-3.2 3.3z"/>
						<path id="&lt;Path&gt;" class="s2" d="m2072.8 517.7h-99c-1.8 0-3.3-1.5-3.3-3.3 0-1.8 1.5-3.3 3.3-3.3h99c1.8 0 3.2 1.5 3.2 3.3 0 1.8-1.4 3.3-3.2 3.3z"/>
						<path id="&lt;Path&gt;" class="s2" d="m2072.8 532.6h-99c-1.8 0-3.3-1.4-3.3-3.3 0-1.8 1.5-3.2 3.3-3.2h99c1.8 0 3.2 1.4 3.2 3.2 0 1.9-1.4 3.3-3.2 3.3z"/>
						<path id="&lt;Path&gt;" class="s2" d="m2072.8 547.6h-99c-1.8 0-3.3-1.5-3.3-3.3 0-1.8 1.5-3.3 3.3-3.3h99c1.8 0 3.2 1.5 3.2 3.3 0 1.8-1.4 3.3-3.2 3.3z"/>
						<path id="&lt;Path&gt;" class="s2" d="m2072.8 562.5h-99c-1.8 0-3.3-1.4-3.3-3.2 0-1.8 1.5-3.3 3.3-3.3h99c1.8 0 3.2 1.5 3.2 3.3 0 1.8-1.4 3.2-3.2 3.2z"/>
						<path id="&lt;Path&gt;" class="s2" d="m2072.8 577.5h-99c-1.8 0-3.3-1.5-3.3-3.3 0-1.8 1.5-3.2 3.3-3.2h99c1.8 0 3.2 1.4 3.2 3.2 0 1.8-1.4 3.3-3.2 3.3z"/>
						<path id="&lt;Path&gt;" class="s2" d="m2072.8 861.9h-99c-1.8 0-3.3-1.4-3.3-3.2 0-1.9 1.5-3.3 3.3-3.3h99c1.8 0 3.2 1.4 3.2 3.3 0 1.8-1.4 3.2-3.2 3.2z"/>
						<path id="&lt;Path&gt;" class="s2" d="m2072.8 876.9h-99c-1.8 0-3.3-1.5-3.3-3.3 0-1.8 1.5-3.3 3.3-3.3h99c1.8 0 3.2 1.5 3.2 3.3 0 1.8-1.4 3.3-3.2 3.3z"/>
						<path id="&lt;Path&gt;" class="s2" d="m2072.8 891.8h-99c-1.8 0-3.3-1.4-3.3-3.2 0-1.8 1.5-3.3 3.3-3.3h99c1.8 0 3.2 1.5 3.2 3.3 0 1.8-1.4 3.2-3.2 3.2z"/>
						<path id="&lt;Path&gt;" class="s2" d="m2072.8 906.8h-99c-1.8 0-3.3-1.5-3.3-3.3 0-1.8 1.5-3.2 3.3-3.2h99c1.8 0 3.2 1.4 3.2 3.2 0 1.8-1.4 3.3-3.2 3.3z"/>
						<path id="&lt;Path&gt;" class="s2" d="m2072.8 921.8h-99c-1.8 0-3.3-1.5-3.3-3.3 0-1.8 1.5-3.3 3.3-3.3h99c1.8 0 3.2 1.5 3.2 3.3 0 1.8-1.4 3.3-3.2 3.3z"/>
						<path id="&lt;Path&gt;" class="s2" d="m2072.8 936.7h-99c-1.8 0-3.3-1.4-3.3-3.3 0-1.8 1.5-3.2 3.3-3.2h99c1.8 0 3.2 1.4 3.2 3.2 0 1.9-1.4 3.3-3.2 3.3z"/>
						<path id="&lt;Path&gt;" class="s2" d="m2072.8 951.7h-99c-1.8 0-3.3-1.5-3.3-3.3 0-1.8 1.5-3.3 3.3-3.3h99c1.8 0 3.2 1.5 3.2 3.3 0 1.8-1.4 3.3-3.2 3.3z"/>
						<path id="&lt;Path&gt;" class="s2" d="m2072.8 968.5h-99c-1.8 0-3.3-1.5-3.3-3.3 0-1.8 1.5-3.3 3.3-3.3h99c1.8 0 3.2 1.5 3.2 3.3 0 1.8-1.4 3.3-3.2 3.3z"/>
						<path id="&lt;Path&gt;" class="s2" d="m2072.8 983.4h-99c-1.8 0-3.3-1.4-3.3-3.2 0-1.8 1.5-3.3 3.3-3.3h99c1.8 0 3.2 1.5 3.2 3.3 0 1.8-1.4 3.2-3.2 3.2z"/>
						<path id="&lt;Path&gt;" class="s2" d="m2072.8 998.4h-99c-1.8 0-3.3-1.5-3.3-3.3 0-1.8 1.5-3.3 3.3-3.3h99c1.8 0 3.2 1.5 3.2 3.3 0 1.8-1.4 3.3-3.2 3.3z"/>
						<path id="&lt;Path&gt;" class="s2" d="m2072.8 1013.4h-99c-1.8 0-3.3-1.5-3.3-3.3 0-1.8 1.5-3.3 3.3-3.3h99c1.8 0 3.2 1.5 3.2 3.3 0 1.8-1.4 3.3-3.2 3.3z"/>
						<path id="&lt;Path&gt;" class="s2" d="m2072.8 1028.3h-99c-1.8 0-3.3-1.5-3.3-3.3 0-1.8 1.5-3.2 3.3-3.2h99c1.8 0 3.2 1.4 3.2 3.2 0 1.8-1.4 3.3-3.2 3.3z"/>
						<path id="&lt;Path&gt;" class="s2" d="m2072.8 1043.3h-99c-1.8 0-3.3-1.5-3.3-3.3 0-1.8 1.5-3.3 3.3-3.3h99c1.8 0 3.2 1.5 3.2 3.3 0 1.8-1.4 3.3-3.2 3.3z"/>
						<path id="&lt;Path&gt;" class="s2" d="m2072.8 592.5h-99c-1.8 0-3.3-1.5-3.3-3.3 0-1.8 1.5-3.3 3.3-3.3h99c1.8 0 3.2 1.5 3.2 3.3 0 1.8-1.4 3.3-3.2 3.3z"/>
						<path id="&lt;Path&gt;" class="s2" d="m2072.8 607.4h-99c-1.8 0-3.3-1.5-3.3-3.3 0-1.8 1.5-3.2 3.3-3.2h99c1.8 0 3.2 1.4 3.2 3.2 0 1.8-1.4 3.3-3.2 3.3z"/>
						<path id="&lt;Path&gt;" class="s2" d="m2072.8 622.4h-99c-1.8 0-3.3-1.5-3.3-3.3 0-1.8 1.5-3.3 3.3-3.3h99c1.8 0 3.2 1.5 3.2 3.3 0 1.8-1.4 3.3-3.2 3.3z"/>
						<path id="&lt;Path&gt;" class="s2" d="m2072.8 637.3h-99c-1.8 0-3.3-1.4-3.3-3.2 0-1.8 1.5-3.3 3.3-3.3h99c1.8 0 3.2 1.5 3.2 3.3 0 1.8-1.4 3.2-3.2 3.2z"/>
						<path id="&lt;Path&gt;" class="s2" d="m2072.8 652.3h-99c-1.8 0-3.3-1.5-3.3-3.3 0-1.8 1.5-3.3 3.3-3.3h99c1.8 0 3.2 1.5 3.2 3.3 0 1.8-1.4 3.3-3.2 3.3z"/>
						<path id="&lt;Path&gt;" class="s2" d="m2072.8 667.2h-99c-1.8 0-3.3-1.4-3.3-3.2 0-1.8 1.5-3.3 3.3-3.3h99c1.8 0 3.2 1.5 3.2 3.3 0 1.8-1.4 3.2-3.2 3.2z"/>
						<path id="&lt;Path&gt;" class="s2" d="m2072.8 682.2h-99c-1.8 0-3.3-1.5-3.3-3.3 0-1.8 1.5-3.2 3.3-3.2h99c1.8 0 3.2 1.4 3.2 3.2 0 1.8-1.4 3.3-3.2 3.3z"/>
						<path id="&lt;Path&gt;" class="s2" d="m2072.8 697.2h-99c-1.8 0-3.3-1.5-3.3-3.3 0-1.8 1.5-3.3 3.3-3.3h99c1.8 0 3.2 1.5 3.2 3.3 0 1.8-1.4 3.3-3.2 3.3z"/>
						<path id="&lt;Path&gt;" class="s2" d="m2072.8 712.1h-99c-1.8 0-3.3-1.4-3.3-3.2 0-1.8 1.5-3.3 3.3-3.3h99c1.8 0 3.2 1.5 3.2 3.3 0 1.8-1.4 3.2-3.2 3.2z"/>
						<path id="&lt;Path&gt;" class="s2" d="m1939 746h-147c-1.8 0-3.3-1.5-3.3-3.3 0-1.8 1.5-3.2 3.3-3.2h147c1.8 0 3.2 1.4 3.2 3.2 0 1.8-1.4 3.3-3.2 3.3z"/>
						<path id="&lt;Path&gt;" class="s2" d="m1939 761h-147c-1.8 0-3.3-1.5-3.3-3.3 0-1.8 1.5-3.3 3.3-3.3h147c1.8 0 3.2 1.5 3.2 3.3 0 1.8-1.4 3.3-3.2 3.3z"/>
						<path id="&lt;Path&gt;" class="s2" d="m1939 775.9h-147c-1.8 0-3.3-1.4-3.3-3.2 0-1.8 1.5-3.3 3.3-3.3h147c1.8 0 3.2 1.5 3.2 3.3 0 1.8-1.4 3.2-3.2 3.2z"/>
						<path id="&lt;Path&gt;" class="s2" d="m1939 790.9h-147c-1.8 0-3.3-1.5-3.3-3.3 0-1.8 1.5-3.3 3.3-3.3h147c1.8 0 3.2 1.5 3.2 3.3 0 1.8-1.4 3.3-3.2 3.3z"/>
						<path id="&lt;Path&gt;" class="s2" d="m1939 805.8h-147c-1.8 0-3.3-1.4-3.3-3.2 0-1.8 1.5-3.3 3.3-3.3h147c1.8 0 3.2 1.5 3.2 3.3 0 1.8-1.4 3.2-3.2 3.2z"/>
						<path id="&lt;Path&gt;" class="s2" d="m1939 820.8h-147c-1.8 0-3.3-1.5-3.3-3.3 0-1.8 1.5-3.2 3.3-3.2h147c1.8 0 3.2 1.4 3.2 3.2 0 1.8-1.4 3.3-3.2 3.3z"/>
						<path id="&lt;Path&gt;" class="s2" d="m1939 835.8h-147c-1.8 0-3.3-1.5-3.3-3.3 0-1.8 1.5-3.3 3.3-3.3h147c1.8 0 3.2 1.5 3.2 3.3 0 1.8-1.4 3.3-3.2 3.3z"/>
						<path id="&lt;Path&gt;" class="s2" d="m1939 850.7h-147c-1.8 0-3.3-1.4-3.3-3.2 0-1.8 1.5-3.3 3.3-3.3h147c1.8 0 3.2 1.5 3.2 3.3 0 1.8-1.4 3.2-3.2 3.2z"/>
						<path id="&lt;Path&gt;" class="s2" d="m1939 865.7h-147c-1.8 0-3.3-1.5-3.3-3.3 0-1.8 1.5-3.3 3.3-3.3h147c1.8 0 3.2 1.5 3.2 3.3 0 1.8-1.4 3.3-3.2 3.3z"/>
						<path id="&lt;Path&gt;" class="s2" d="m1939 880.6h-147c-1.8 0-3.3-1.4-3.3-3.2 0-1.8 1.5-3.3 3.3-3.3h147c1.8 0 3.2 1.5 3.2 3.3 0 1.8-1.4 3.2-3.2 3.2z"/>
						<path id="&lt;Path&gt;" class="s2" d="m1939 895.6h-147c-1.8 0-3.3-1.5-3.3-3.3 0-1.8 1.5-3.2 3.3-3.2h147c1.8 0 3.2 1.4 3.2 3.2 0 1.8-1.4 3.3-3.2 3.3z"/>
						<path id="&lt;Path&gt;" class="s2" d="m1939 910.6h-147c-1.8 0-3.3-1.5-3.3-3.3 0-1.8 1.5-3.3 3.3-3.3h147c1.8 0 3.2 1.5 3.2 3.3 0 1.8-1.4 3.3-3.2 3.3z"/>
						<path id="&lt;Path&gt;" class="s2" d="m1939 925.5h-147c-1.8 0-3.3-1.4-3.3-3.2 0-1.9 1.5-3.3 3.3-3.3h147c1.8 0 3.2 1.4 3.2 3.3 0 1.8-1.4 3.2-3.2 3.2z"/>
						<path id="&lt;Path&gt;" class="s2" d="m1939 940.5h-147c-1.8 0-3.3-1.5-3.3-3.3 0-1.8 1.5-3.3 3.3-3.3h147c1.8 0 3.2 1.5 3.2 3.3 0 1.8-1.4 3.3-3.2 3.3z"/>
						<path id="&lt;Path&gt;" class="s2" d="m1939 955.4h-147c-1.8 0-3.3-1.4-3.3-3.2 0-1.8 1.5-3.3 3.3-3.3h147c1.8 0 3.2 1.5 3.2 3.3 0 1.8-1.4 3.2-3.2 3.2z"/>
						<path id="&lt;Path&gt;" class="s2" d="m1939 970.4h-147c-1.8 0-3.3-1.5-3.3-3.3 0-1.8 1.5-3.2 3.3-3.2h147c1.8 0 3.2 1.4 3.2 3.2 0 1.8-1.4 3.3-3.2 3.3z"/>
						<path id="&lt;Path&gt;" class="s2" d="m1939 984.4h-147c-1.8 0-3.3-1.5-3.3-3.3 0-1.8 1.5-3.3 3.3-3.3h147c1.8 0 3.2 1.5 3.2 3.3 0 1.8-1.4 3.3-3.2 3.3z"/>
						<path id="&lt;Path&gt;" class="s2" d="m1939 999.3h-147c-1.8 0-3.3-1.4-3.3-3.2 0-1.8 1.5-3.3 3.3-3.3h147c1.8 0 3.2 1.5 3.2 3.3 0 1.8-1.4 3.2-3.2 3.2z"/>
						<path id="&lt;Path&gt;" class="s2" d="m1939 1014.3h-147c-1.8 0-3.3-1.5-3.3-3.3 0-1.8 1.5-3.2 3.3-3.2h147c1.8 0 3.2 1.4 3.2 3.2 0 1.8-1.4 3.3-3.2 3.3z"/>
						<path id="&lt;Path&gt;" class="s2" d="m1939 1029.3h-147c-1.8 0-3.3-1.5-3.3-3.3 0-1.8 1.5-3.3 3.3-3.3h147c1.8 0 3.2 1.5 3.2 3.3 0 1.8-1.4 3.3-3.2 3.3z"/>
						<path id="&lt;Path&gt;" class="s2" d="m1939 1044.2h-147c-1.8 0-3.3-1.5-3.3-3.3 0-1.8 1.5-3.2 3.3-3.2h147c1.8 0 3.2 1.4 3.2 3.2 0 1.8-1.4 3.3-3.2 3.3z"/>
						<path id="&lt;Path&gt;" class="s2" d="m2073.2 836.6h-99.9c-1.5 0-2.8-1.3-2.8-2.8v-92.3c0-1.6 1.3-2.8 2.8-2.8h99.9c1.6 0 2.8 1.2 2.8 2.8v92.3c0 1.5-1.2 2.8-2.8 2.8z"/>
						<g id="&lt;Group&gt;">
							<path id="&lt;Path&gt;" class="s2" d="m1938.5 712.1h-146c-2.1 0-3.8-1.7-3.8-3.8v-223.3c0-2.1 1.7-3.8 3.8-3.8h146c2 0 3.7 1.7 3.7 3.8v223.3c0 2.1-1.7 3.8-3.7 3.8z"/>
							<g id="&lt;Group&gt;">
								<path id="&lt;Path&gt;" class="s0" d="m1925.5 562.5h-120.1c-1.2 0-2.3-1-2.3-2.3v-62.3c0-1.3 1.1-2.3 2.3-2.3h120.1c1.3 0 2.3 1 2.3 2.3v62.3c0 1.3-1 2.3-2.3 2.3z"/>
								<path id="&lt;Path&gt;" class="s0" d="m1925.5 637.6h-120.1c-1.2 0-2.3-1-2.3-2.3v-62.3c0-1.3 1.1-2.3 2.3-2.3h120.1c1.3 0 2.3 1 2.3 2.3v62.3c0 1.3-1 2.3-2.3 2.3z"/>
								<path id="&lt;Path&gt;" class="s0" d="m1859.8 701.3h-54.7c-1.1 0-2-0.9-2-2v-51.6c0-1.1 0.9-2 2-2h54.7c1.1 0 2 0.9 2 2v51.6c0 1.1-0.9 2-2 2z"/>
								<path id="&lt;Path&gt;" class="s0" d="m1925.8 701.3h-56.1c-1.1 0-2-0.9-2-2v-51.5c0-1.2 0.9-2.1 2-2.1h56.1c1.1 0 2 0.9 2 2.1v51.5c0 1.1-0.9 2-2 2z"/>
							</g>
						</g>
					</g>
				</g>
				<g id="&lt;Group&gt;">
					<path id="&lt;Path&gt;" class="s0" d="m1694.1 1062.4h-316.4c-6.8 0-12.3-5.5-12.3-12.3v-577.8c0-6.8 5.5-12.3 12.3-12.3h316.4c6.8 0 12.3 5.5 12.3 12.3v577.8c0 6.8-5.5 12.3-12.3 12.3z"/>
					<path id="&lt;Path&gt;" class="s2" d="m1521.2 622.1h-123.1c-3.1 0-5.7-2.5-5.7-5.6v-123.1c0-3.1 2.6-5.7 5.7-5.7h123.1c3.1 0 5.6 2.6 5.6 5.7v123.1c0 3.1-2.5 5.6-5.6 5.6z"/>
					<path id="&lt;Path&gt;" class="s2" d="m1680.1 495.9h-95.4c-1.7 0-3-1.3-3-3v-2.2c0-1.6 1.3-3 3-3h95.4c1.6 0 2.9 1.4 2.9 3v2.2c0 1.7-1.3 3-2.9 3z"/>
					<path id="&lt;Path&gt;" class="s2" d="m1680.1 510.1h-95.4c-1.7 0-3-1.3-3-2.9v-2.3c0-1.6 1.3-2.9 3-2.9h95.4c1.6 0 2.9 1.3 2.9 2.9v2.3c0 1.6-1.3 2.9-2.9 2.9z"/>
					<path id="&lt;Path&gt;" class="s2" d="m1680.1 524.4h-95.4c-1.7 0-3-1.3-3-3v-2.2c0-1.6 1.3-3 3-3h95.4c1.6 0 2.9 1.4 2.9 3v2.2c0 1.7-1.3 3-2.9 3z"/>
					<path id="&lt;Path&gt;" class="s2" d="m1680.1 538.6h-95.4c-1.7 0-3-1.3-3-2.9v-2.3c0-1.6 1.3-2.9 3-2.9h95.4c1.6 0 2.9 1.3 2.9 2.9v2.3c0 1.6-1.3 2.9-2.9 2.9z"/>
					<path id="&lt;Path&gt;" class="s2" d="m1680.1 552.9h-95.4c-1.7 0-3-1.3-3-3v-2.2c0-1.7 1.3-3 3-3h95.4c1.6 0 2.9 1.3 2.9 3v2.2c0 1.7-1.3 3-2.9 3z"/>
					<path id="&lt;Path&gt;" class="s2" d="m1680.1 567.1h-95.4c-1.7 0-3-1.3-3-2.9v-2.3c0-1.6 1.3-2.9 3-2.9h95.4c1.6 0 2.9 1.3 2.9 2.9v2.3c0 1.6-1.3 2.9-2.9 2.9z"/>
					<path id="&lt;Path&gt;" class="s2" d="m1680.1 581.4h-95.4c-1.7 0-3-1.4-3-3v-2.2c0-1.7 1.3-3 3-3h95.4c1.6 0 2.9 1.3 2.9 3v2.2c0 1.6-1.3 3-2.9 3z"/>
					<path id="&lt;Path&gt;" class="s2" d="m1680.1 595.6h-95.4c-1.7 0-3-1.3-3-3v-2.2c0-1.6 1.3-3 3-3h95.4c1.6 0 2.9 1.4 2.9 3v2.2c0 1.7-1.3 3-2.9 3z"/>
					<path id="&lt;Path&gt;" class="s2" d="m1680.1 609.9h-95.4c-1.7 0-3-1.4-3-3v-2.2c0-1.7 1.3-3 3-3h95.4c1.6 0 2.9 1.3 2.9 3v2.2c0 1.6-1.3 3-2.9 3z"/>
					<path id="&lt;Path&gt;" class="s2" d="m1680.1 624.1h-95.4c-1.7 0-3-1.3-3-3v-2.2c0-1.6 1.3-3 3-3h95.4c1.6 0 2.9 1.4 2.9 3v2.2c0 1.7-1.3 3-2.9 3z"/>
					<g id="&lt;Group&gt;">
						<path id="&lt;Path&gt;" class="s2" d="m1559.6 500.9c0 3.9-3.2 7.1-7.1 7.1-3.9 0-7.1-3.2-7.1-7.1 0-3.9 3.2-7.1 7.1-7.1 3.9 0 7.1 3.2 7.1 7.1z"/>
						<path id="&lt;Path&gt;" class="s2" d="m1559.6 556.9c0 3.9-3.2 7.1-7.1 7.1-3.9 0-7.1-3.2-7.1-7.1 0-3.9 3.2-7.1 7.1-7.1 3.9 0 7.1 3.2 7.1 7.1z"/>
						<path id="&lt;Path&gt;" class="s2" d="m1559.6 612.9c0 3.9-3.2 7.1-7.1 7.1-3.9 0-7.1-3.2-7.1-7.1 0-3.9 3.2-7.1 7.1-7.1 3.9 0 7.1 3.2 7.1 7.1z"/>
					</g>
					<path id="&lt;Path&gt;" class="s2" d="m1683 660.7h-290.6v-16.6h290.6z"/>
					<path id="&lt;Path&gt;" class="s2" d="m1683 689.5h-290.6v-16.6h290.6z"/>
					<path id="&lt;Path&gt;" class="s2" d="m1545.4 718.4h-153v-16.7h153z"/>
					<path id="&lt;Path&gt;" class="s2" d="m1680.8 749.7h-286.2c-1.2 0-2.2-1-2.2-2.2v-5.5c0-1.2 1-2.2 2.2-2.2h286.2c1.2 0 2.2 1 2.2 2.2v5.5c0 1.2-1 2.2-2.2 2.2z"/>
					<path id="&lt;Path&gt;" class="s2" d="m1680.8 769.9h-286.2c-1.2 0-2.2-1-2.2-2.2v-5.5c0-1.2 1-2.2 2.2-2.2h286.2c1.2 0 2.2 1 2.2 2.2v5.5c0 1.2-1 2.2-2.2 2.2z"/>
					<path id="&lt;Path&gt;" class="s2" d="m1680.8 790.1h-286.2c-1.2 0-2.2-1-2.2-2.2v-5.5c0-1.2 1-2.2 2.2-2.2h286.2c1.2 0 2.2 1 2.2 2.2v5.5c0 1.2-1 2.2-2.2 2.2z"/>
					<path id="&lt;Path&gt;" class="s2" d="m1680.8 810.3h-286.2c-1.2 0-2.2-1-2.2-2.2v-5.4c0-1.3 1-2.3 2.2-2.3h286.2c1.2 0 2.2 1 2.2 2.3v5.4c0 1.2-1 2.2-2.2 2.2z"/>
					<path id="&lt;Path&gt;" class="s2" d="m1680.8 830.5h-286.2c-1.2 0-2.2-1-2.2-2.2v-5.4c0-1.3 1-2.3 2.2-2.3h286.2c1.2 0 2.2 1 2.2 2.3v5.4c0 1.2-1 2.2-2.2 2.2z"/>
					<path id="&lt;Path&gt;" class="s2" d="m1680.8 850.7h-286.2c-1.2 0-2.2-1-2.2-2.2v-5.4c0-1.3 1-2.3 2.2-2.3h286.2c1.2 0 2.2 1 2.2 2.3v5.4c0 1.2-1 2.2-2.2 2.2z"/>
					<path id="&lt;Path&gt;" class="s2" d="m1537.9 870.9h-143.9c-0.9 0-1.6-0.7-1.6-1.6v-6.7c0-0.8 0.7-1.5 1.6-1.5h143.9c0.9 0 1.6 0.7 1.6 1.5v6.7c0 0.9-0.7 1.6-1.6 1.6z"/>
					<g id="&lt;Group&gt;">
						<path id="&lt;Path&gt;" class="s2" d="m1470.5 990.8h-70.2c-4.3 0-7.9-3.5-7.9-7.9v-74.7c0-4.4 3.6-7.9 7.9-7.9h70.2c4.4 0 7.9 3.5 7.9 7.9v74.7c0 4.4-3.5 7.9-7.9 7.9z"/>
						<path id="&lt;Path&gt;" class="s2" d="m1572.8 990.4h-70.2c-4.3 0-7.9-3.5-7.9-7.9v-74.7c0-4.4 3.6-7.9 7.9-7.9h70.2c4.4 0 7.9 3.5 7.9 7.9v74.7c0 4.4-3.5 7.9-7.9 7.9z"/>
						<path id="&lt;Path&gt;" class="s2" d="m1675.1 990h-70.2c-4.3 0-7.9-3.5-7.9-7.9v-74.7c0-4.4 3.6-7.9 7.9-7.9h70.2c4.4 0 7.9 3.5 7.9 7.9v74.7c0 4.4-3.5 7.9-7.9 7.9z"/>
					</g>
					<g id="&lt;Group&gt;">
						<path id="&lt;Path&gt;" class="s2" d="m1681.7 1016.6h-288c-0.7 0-1.3-0.6-1.3-1.3v-6c0-0.7 0.6-1.3 1.3-1.3h288c0.7 0 1.3 0.6 1.3 1.3v6c0 0.7-0.6 1.3-1.3 1.3z"/>
						<path id="&lt;Path&gt;" class="s2" d="m1681.7 1032.6h-288c-0.7 0-1.3-0.6-1.3-1.3v-6c0-0.7 0.6-1.3 1.3-1.3h288c0.7 0 1.3 0.6 1.3 1.3v6c0 0.7-0.6 1.3-1.3 1.3z"/>
						<path id="&lt;Path&gt;" class="s2" d="m1565.2 1048.6h-171.8c-0.5 0-1-0.5-1-1v-6.6c0-0.5 0.5-1 1-1h171.8c0.6 0 1 0.5 1 1v6.6c0 0.5-0.4 1-1 1z"/>
					</g>
				</g>
			</g>
			<g id="&lt;Group&gt;">
				<path id="&lt;Path&gt;" class="s4" d="m1025.8 710h-226.4c-6.2 0-11.3-5.1-11.3-11.4v-148.4c0-6.2 5.1-11.3 11.3-11.3h226.4c6.3 0 11.4 5.1 11.4 11.3v148.4c0 6.3-5.1 11.4-11.4 11.4z"/>
				<g id="&lt;Group&gt;">
					<path id="&lt;Compound Path&gt;" class="s3" d="m852.2 639.4q0 9-2.6 13.9-5 9.1-18.8 9.1-8 0-13.7-4.3-5.6-4.3-5.6-15.4v-5.1h9v5.1q0 5.8 2.6 8.7 2.6 3 8.1 3 7.7 0 10-5.3 1.5-3.2 1.5-12.2v-47.4h9.5z"/>
					<path id="&lt;Compound Path&gt;" fill-rule="evenodd" class="s3" d="m925.3 599.7q7.1 9.4 7.1 24.1 0 15.9-8.1 26.5-9.5 12.3-27 12.3-16.4 0-25.8-10.8-8.4-10.4-8.4-26.4 0-14.4 7.2-24.6 9.2-13.2 27.2-13.2 18.8 0 27.8 12.1zm-8.5 45.3q5.7-9.2 5.7-21 0-12.5-6.6-20.2-6.5-7.6-17.9-7.6-11 0-17.9 7.5-7 7.6-7 22.4 0 11.8 6 19.9 5.9 8.1 19.3 8.1 12.7 0 18.4-9.1z"/>
					<path id="&lt;Compound Path&gt;" fill-rule="evenodd" class="s3" d="m943.6 589.5h30.7q12.5 0 17.8 7.5 3.1 4.4 3.1 10.1 0 6.8-3.8 11.1-2 2.2-5.7 4.1 5.5 2.1 8.2 4.7 4.8 4.6 4.8 12.8 0 6.9-4.4 12.4-6.4 8.3-20.5 8.3h-30.2zm27.1 30.1q6.1 0 9.5-1.7 5.4-2.7 5.4-9.6 0-7-5.7-9.4-3.2-1.3-9.6-1.3h-17.3v22zm3.2 32.7q9 0 12.8-5.1 2.4-3.2 2.4-7.8 0-7.8-7-10.6-3.7-1.5-9.8-1.5h-19.3v25z"/>
				</g>
				<path id="&lt;Compound Path&gt;" fill-rule="evenodd" class="s3" d="m1005.9 752.3c-1.4 0-2.8-0.7-3.7-1.9l-34.5-45.1h-174.8c-7.2 0-12.9-5.7-12.9-12.9v-148.3c0-7.1 5.7-12.9 12.9-12.9h226.3c7.1 0 12.9 5.8 12.9 12.9v148.3c0 7.2-5.8 12.9-12.9 12.9h-8.6v42.3c0 2-1.2 3.7-3.2 4.4q-0.7 0.3-1.5 0.3zm-213-218.1c-5.5 0-9.9 4.5-9.9 9.9v148.3c0 5.5 4.4 9.9 9.9 9.9h176.3l35.4 46.3c0.7 0.9 1.6 0.6 1.9 0.6 0.2-0.1 1.1-0.5 1.1-1.6v-45.3h11.6c5.5 0 9.9-4.4 9.9-9.9v-148.3c0-5.4-4.4-9.9-9.9-9.9z"/>
			</g>
			<g id="&lt;Group&gt;">
				<path id="&lt;Path&gt;" class="s4" d="m1551.9 409h-226.4c-6.2 0-11.3-5.1-11.3-11.4v-148.3c0-6.3 5.1-11.4 11.3-11.4h226.4c6.3 0 11.4 5.1 11.4 11.4v148.3c0 6.3-5.1 11.4-11.4 11.4z"/>
				<g id="&lt;Group&gt;">
					<path id="&lt;Compound Path&gt;" class="s3" d="m1378.3 338.4q0 9-2.6 14-5 9.1-18.8 9.1-8 0-13.7-4.4-5.6-4.3-5.6-15.4v-5h9v5q0 5.8 2.6 8.8 2.6 2.9 8.1 2.9 7.7 0 10-5.3 1.5-3.2 1.5-12.2v-47.3h9.5z"/>
					<path id="&lt;Compound Path&gt;" fill-rule="evenodd" class="s3" d="m1451.4 298.7q7 9.4 7 24.1 0 15.9-8 26.5-9.5 12.3-27 12.3-16.4 0-25.8-10.8-8.4-10.4-8.4-26.4 0-14.4 7.2-24.6 9.2-13.2 27.2-13.2 18.8 0 27.8 12.1zm-8.5 45.3q5.7-9.1 5.7-21 0-12.5-6.6-20.2-6.5-7.6-17.9-7.6-11 0-17.9 7.6-7 7.5-7 22.3 0 11.8 6 19.9 5.9 8.1 19.3 8.1 12.7 0 18.4-9.1z"/>
					<path id="&lt;Compound Path&gt;" fill-rule="evenodd" class="s3" d="m1469.7 288.6h30.7q12.5 0 17.8 7.4 3.1 4.4 3.1 10.2 0 6.7-3.8 11-2 2.3-5.7 4.1 5.5 2.1 8.2 4.7 4.8 4.7 4.8 12.8 0 6.9-4.4 12.5-6.4 8.3-20.5 8.3h-30.2zm27.1 30q6.1 0 9.5-1.7 5.4-2.7 5.4-9.6 0-6.9-5.7-9.4-3.2-1.3-9.6-1.3h-17.3v22zm3.2 32.8q9 0 12.8-5.2 2.4-3.2 2.4-7.8 0-7.7-7-10.5-3.7-1.5-9.8-1.5h-19.3v25z"/>
				</g>
				<path id="&lt;Compound Path&gt;" fill-rule="evenodd" class="s3" d="m1532 451.3c-1.4 0-2.8-0.7-3.7-1.9l-34.5-45h-174.9c-7.1 0-12.8-5.8-12.8-12.9v-148.4c0-7.1 5.7-12.8 12.8-12.8h226.4c7.1 0 12.9 5.7 12.9 12.8v148.4c0 7.1-5.8 12.9-12.9 12.9h-8.6v42.2c0 2-1.2 3.8-3.2 4.4q-0.7 0.3-1.5 0.3zm-213.1-218c-5.4 0-9.8 4.4-9.8 9.8v148.4c0 5.4 4.4 9.9 9.8 9.9h176.4l35.4 46.2c0.7 0.9 1.6 0.7 1.9 0.6 0.2-0.1 1.1-0.5 1.1-1.6v-45.2h11.6c5.5 0 9.9-4.5 9.9-9.9v-148.4c0-5.4-4.4-9.8-9.9-9.8z"/>
			</g>
			<g id="&lt;Group&gt;">
				<path id="&lt;Path&gt;" class="s4" d="m2042.2 503.6h226.3c6.3 0 11.4-5.1 11.4-11.4v-148.3c0-6.3-5.1-11.4-11.4-11.4h-226.3c-6.3 0-11.4 5.1-11.4 11.4v148.3c0 6.3 5.1 11.4 11.4 11.4z"/>
				<g id="&lt;Group&gt;">
					<path id="&lt;Compound Path&gt;" class="s3" d="m2110.1 433q0 9-2.7 14-4.9 9.1-18.8 9.1-8 0-13.6-4.4-5.7-4.3-5.7-15.4v-5h9.1v5q0 5.8 2.5 8.8 2.6 2.9 8.1 2.9 7.7 0 10.1-5.3 1.4-3.2 1.4-12.2v-47.3h9.6z"/>
					<path id="&lt;Compound Path&gt;" fill-rule="evenodd" class="s3" d="m2183.1 393.3q7.1 9.5 7.1 24.1 0 15.9-8.1 26.5-9.5 12.4-27 12.4-16.4 0-25.8-10.9-8.3-10.4-8.3-26.4 0-14.4 7.1-24.6 9.2-13.2 27.2-13.2 18.8 0 27.8 12.1zm-8.5 45.3q5.7-9.1 5.7-21 0-12.5-6.5-20.2-6.6-7.6-17.9-7.6-11 0-18 7.6-7 7.5-7 22.3 0 11.8 6 19.9 6 8.1 19.4 8.1 12.7 0 18.3-9.1z"/>
					<path id="&lt;Compound Path&gt;" fill-rule="evenodd" class="s3" d="m2201.4 383.2h30.7q12.5 0 17.9 7.4 3.1 4.4 3.1 10.2 0 6.7-3.9 11-1.9 2.3-5.7 4.1 5.5 2.1 8.2 4.7 4.8 4.7 4.8 12.8 0 6.9-4.3 12.5-6.5 8.3-20.6 8.3h-30.2zm27.1 30q6.2 0 9.6-1.7 5.3-2.7 5.3-9.6 0-6.9-5.7-9.3-3.2-1.4-9.5-1.4h-17.4v22zm3.3 32.8q8.9 0 12.7-5.2 2.4-3.2 2.4-7.8 0-7.7-7-10.5-3.7-1.5-9.8-1.5h-19.3v25z"/>
				</g>
				<path id="&lt;Compound Path&gt;" fill-rule="evenodd" class="s3" d="m2062.1 545.9q-0.8 0-1.6-0.3c-1.9-0.6-3.1-2.4-3.1-4.4v-42.2h-8.6c-7.1 0-12.9-5.8-12.9-12.9v-148.3c0-7.2 5.8-12.9 12.9-12.9h226.3c7.1 0 12.9 5.7 12.9 12.9v148.3c0 7.1-5.8 12.9-12.9 12.9h-174.8l-34.5 45c-1 1.2-2.3 1.9-3.7 1.9zm-13.3-218c-5.5 0-9.9 4.4-9.9 9.9v148.3c0 5.4 4.4 9.9 9.9 9.9h11.6v45.2c0 1.1 0.8 1.5 1.1 1.6 0.3 0.1 1.2 0.3 1.9-0.6l35.4-46.2h176.3c5.5 0 9.9-4.5 9.9-9.9v-148.3c0-5.5-4.4-9.9-9.9-9.9z"/>
			</g>
			<g id="&lt;Group&gt;">
				<g id="&lt;Group&gt;">
					<path id="&lt;Compound Path&gt;" fill-rule="evenodd" class="s3" d="m1478 1342.1c-57.9 15.5-117.8 11.6-172.4-10.4 2.1 4.1 2.1 9.2-0.4 13.5l-197.2 340.8c-3.9 6.8-12.6 9.1-19.4 5.2l-53.9-31.1c-6.8-4-9.1-12.7-5.2-19.5l197.2-340.8c2.5-4.3 6.9-6.8 11.6-7-46.4-36.4-79.5-86.5-95-144.3-18.8-70.6-9-144.3 27.5-207.5 36.6-63.2 95.6-108.4 166.2-127.2 70.5-18.8 144.2-9.1 207.4 27.5 63.2 36.6 108.4 95.6 127.2 166.1 18.9 70.6 9.1 144.3-27.5 207.5-36.6 63.2-95.6 108.4-166.1 127.2zm-9.6-35.7c61.1-16.3 112.1-55.4 143.7-110.1 31.6-54.6 40.1-118.3 23.8-179.3-16.3-61-55.4-112-110-143.7-54.7-31.6-118.4-40-179.4-23.8-61 16.3-112 55.4-143.7 110.1-31.6 54.6-40 118.3-23.7 179.3 16.2 61 55.3 112.1 110 143.7 54.6 31.6 118.3 40 179.3 23.8z"/>
					<path id="&lt;Path&gt;" class="s5" d="m1604 1201.5c-64.2 110.9-206.1 148.8-317 84.6-110.9-64.1-148.8-206.1-84.6-317 64.2-110.9 206.1-148.7 317-84.6 110.9 64.2 148.8 206.1 84.6 317z"/>
					<path id="&lt;Path&gt;" class="s6" d="m1604 1201.5c-64.2 110.9-206.1 148.8-317 84.6-110.9-64.1-148.8-206.1-84.6-317 64.2-110.9 206.1-148.7 317-84.6 110.9 64.2 148.8 206.1 84.6 317z"/>
					<g id="&lt;Clip Group&gt;" clip-path="url(#cp3)">
						<path id="&lt;Path&gt;" class="s7" d="m1514.9 855.3l-388.7 162.8 6.2 112.3 482.1-189z"/>
						<path id="&lt;Path&gt;" class="s8" d="m1679.5 956.3l-521.3 208.8 46.9 94.4 510.5-200.1z"/>
						<path id="&lt;Path&gt;" class="s1" d="m1721.3 1089.9l-521.3 208.7 43.1 49.6 500-196z"/>
					</g>
				</g>
				<path id="&lt;Compound Path&gt;" fill-rule="evenodd" class="s1" d="m1500.1 1366.1c-57.8 15.5-117.8 11.6-172.4-10.4 2.1 4.1 2.1 9.2-0.4 13.5l-197.2 340.8c-3.9 6.8-12.6 9.1-19.4 5.2l-53.8-31.1c-6.8-4-9.1-12.7-5.2-19.5l197.2-340.8c2.5-4.3 6.9-6.8 11.5-7.1-46.3-36.3-79.5-86.4-94.9-144.2-18.9-70.6-9.1-144.3 27.5-207.5 36.5-63.2 95.5-108.4 166.1-127.2 70.6-18.8 144.2-9.1 207.4 27.5 63.3 36.6 108.4 95.6 127.3 166.1 18.8 70.6 9 144.3-27.5 207.5-36.6 63.2-95.6 108.4-166.2 127.2zm-9.5-35.7c61-16.3 112-55.4 143.6-110.1 31.7-54.6 40.1-118.3 23.8-179.3-16.3-61-55.3-112.1-110-143.7-54.6-31.6-118.3-40-179.4-23.8-61 16.3-112 55.4-143.6 110.1-31.6 54.6-40.1 118.3-23.8 179.3 16.3 61 55.4 112 110 143.7 54.7 31.6 118.4 40 179.4 23.8z"/>
			</g>
			<g id="&lt;Group&gt;">
				<g id="&lt;Group&gt;">
					<path id="&lt;Path&gt;" class="s0" d="m2584.2 875.9h-774.4c-54.1 0-98-43.8-98-97.9 0-54.2 43.9-98 98-98h774.4c54.1 0 98 43.8 98 98 0 54.1-43.9 97.9-98 97.9z"/>
					<path id="&lt;Compound Path&gt;" fill-rule="evenodd" class="s3" d="m2570.6 874.4h-774.5c-55.6 0-100.9-45.3-100.9-100.9 0-55.7 45.3-101 100.9-101h774.5c55.6 0 100.9 45.3 100.9 101 0 55.6-45.3 100.9-100.9 100.9zm-774.5-195.9c-52.3 0-94.9 42.6-94.9 95 0 52.3 42.6 94.9 94.9 94.9h774.5c52.3 0 94.9-42.6 94.9-94.9 0-52.4-42.6-95-94.9-95z"/>
				</g>
				<g id="&lt;Group&gt;">
					<path id="&lt;Path&gt;" class="s3" d="m1812.5 779.4h-9.4c-3 0-5.3-2.4-5.3-5.3v-9.4c0-2.9 2.3-5.3 5.3-5.3h9.4c2.9 0 5.3 2.4 5.3 5.3v9.4c0 2.9-2.4 5.3-5.3 5.3z"/>
					<path id="&lt;Path&gt;" class="s3" d="m1847.6 779.4h-9.4c-2.9 0-5.3-2.4-5.3-5.3v-9.4c0-2.9 2.4-5.3 5.3-5.3h9.4c2.9 0 5.3 2.4 5.3 5.3v9.4c0 2.9-2.4 5.3-5.3 5.3z"/>
					<path id="&lt;Path&gt;" class="s3" d="m1882.7 779.4h-9.3c-3 0-5.4-2.4-5.4-5.3v-9.4c0-2.9 2.4-5.3 5.4-5.3h9.3c3 0 5.4 2.4 5.4 5.3v9.4c0 2.9-2.4 5.3-5.4 5.3z"/>
					<path id="&lt;Path&gt;" class="s3" d="m1917.9 779.4h-9.4c-3 0-5.3-2.4-5.3-5.3v-9.4c0-2.9 2.3-5.3 5.3-5.3h9.4c2.9 0 5.3 2.4 5.3 5.3v9.4c0 2.9-2.4 5.3-5.3 5.3z"/>
					<path id="&lt;Path&gt;" class="s3" d="m1953 779.4h-9.4c-2.9 0-5.3-2.4-5.3-5.3v-9.4c0-2.9 2.4-5.3 5.3-5.3h9.4c2.9 0 5.3 2.4 5.3 5.3v9.4c0 2.9-2.4 5.3-5.3 5.3z"/>
					<path id="&lt;Path&gt;" class="s3" d="m1988.1 779.4h-9.3c-3 0-5.4-2.4-5.4-5.3v-9.4c0-2.9 2.4-5.3 5.4-5.3h9.3c3 0 5.4 2.4 5.4 5.3v9.4c0 2.9-2.4 5.3-5.4 5.3z"/>
					<path id="&lt;Path&gt;" class="s3" d="m2023.3 779.4h-9.4c-3 0-5.3-2.4-5.3-5.3v-9.4c0-2.9 2.3-5.3 5.3-5.3h9.4c2.9 0 5.3 2.4 5.3 5.3v9.4c0 2.9-2.4 5.3-5.3 5.3z"/>
					<path id="&lt;Path&gt;" class="s3" d="m2058.4 779.4h-9.4c-2.9 0-5.3-2.4-5.3-5.3v-9.4c0-2.9 2.4-5.3 5.3-5.3h9.4c2.9 0 5.3 2.4 5.3 5.3v9.4c0 2.9-2.4 5.3-5.3 5.3z"/>
					<path id="&lt;Path&gt;" class="s3" d="m2093.5 779.4h-9.3c-3 0-5.4-2.4-5.4-5.3v-9.4c0-2.9 2.4-5.3 5.4-5.3h9.3c3 0 5.4 2.4 5.4 5.3v9.4c0 2.9-2.4 5.3-5.4 5.3z"/>
					<path id="&lt;Path&gt;" class="s3" d="m2128.7 779.4h-9.4c-2.9 0-5.3-2.4-5.3-5.3v-9.4c0-2.9 2.4-5.3 5.3-5.3h9.4c2.9 0 5.3 2.4 5.3 5.3v9.4c0 2.9-2.4 5.3-5.3 5.3z"/>
					<path id="&lt;Path&gt;" class="s3" d="m2163.8 779.4h-9.4c-2.9 0-5.3-2.4-5.3-5.3v-9.4c0-2.9 2.4-5.3 5.3-5.3h9.4c2.9 0 5.3 2.4 5.3 5.3v9.4c0 2.9-2.4 5.3-5.3 5.3z"/>
					<path id="&lt;Path&gt;" class="s3" d="m2198.9 779.4h-9.3c-3 0-5.4-2.4-5.4-5.3v-9.4c0-2.9 2.4-5.3 5.4-5.3h9.3c3 0 5.4 2.4 5.4 5.3v9.4c0 2.9-2.4 5.3-5.4 5.3z"/>
					<path id="&lt;Path&gt;" class="s3" d="m2234.1 779.4h-9.4c-2.9 0-5.3-2.4-5.3-5.3v-9.4c0-2.9 2.4-5.3 5.3-5.3h9.4c2.9 0 5.3 2.4 5.3 5.3v9.4c0 2.9-2.4 5.3-5.3 5.3z"/>
					<path id="&lt;Path&gt;" class="s3" d="m2269.2 779.4h-9.4c-2.9 0-5.3-2.4-5.3-5.3v-9.4c0-2.9 2.4-5.3 5.3-5.3h9.4c3 0 5.3 2.4 5.3 5.3v9.4c0 2.9-2.3 5.3-5.3 5.3z"/>
					<path id="&lt;Path&gt;" class="s3" d="m2304.3 779.4h-9.3c-3 0-5.4-2.4-5.4-5.3v-9.4c0-2.9 2.4-5.3 5.4-5.3h9.3c3 0 5.4 2.4 5.4 5.3v9.4c0 2.9-2.4 5.3-5.4 5.3z"/>
					<path id="&lt;Path&gt;" class="s3" d="m2339.5 779.4h-9.4c-2.9 0-5.3-2.4-5.3-5.3v-9.4c0-2.9 2.4-5.3 5.3-5.3h9.4c2.9 0 5.3 2.4 5.3 5.3v9.4c0 2.9-2.4 5.3-5.3 5.3z"/>
					<path id="&lt;Path&gt;" class="s3" d="m2374.6 779.4h-9.4c-2.9 0-5.3-2.4-5.3-5.3v-9.4c0-2.9 2.4-5.3 5.3-5.3h9.4c3 0 5.3 2.4 5.3 5.3v9.4c0 2.9-2.3 5.3-5.3 5.3z"/>
					<path id="&lt;Path&gt;" class="s3" d="m2409.7 779.4h-9.3c-3 0-5.4-2.4-5.4-5.3v-9.4c0-2.9 2.4-5.3 5.4-5.3h9.3c3 0 5.4 2.4 5.4 5.3v9.4c0 2.9-2.4 5.3-5.4 5.3z"/>
					<path id="&lt;Path&gt;" class="s3" d="m2444.9 779.4h-9.4c-2.9 0-5.3-2.4-5.3-5.3v-9.4c0-2.9 2.4-5.3 5.3-5.3h9.4c2.9 0 5.3 2.4 5.3 5.3v9.4c0 2.9-2.4 5.3-5.3 5.3z"/>
					<path id="&lt;Path&gt;" class="s3" d="m2480 779.4h-9.4c-2.9 0-5.3-2.4-5.3-5.3v-9.4c0-2.9 2.4-5.3 5.3-5.3h9.4c3 0 5.4 2.4 5.4 5.3v9.4c0 2.9-2.4 5.3-5.4 5.3z"/>
					<path id="&lt;Path&gt;" class="s3" d="m2515.2 779.4h-9.4c-3 0-5.4-2.4-5.4-5.3v-9.4c0-2.9 2.4-5.3 5.4-5.3h9.4c2.9 0 5.3 2.4 5.3 5.3v9.4c0 2.9-2.4 5.3-5.3 5.3z"/>
					<path id="&lt;Path&gt;" class="s3" d="m2550.3 779.4h-9.4c-2.9 0-5.3-2.4-5.3-5.3v-9.4c0-2.9 2.4-5.3 5.3-5.3h9.4c2.9 0 5.3 2.4 5.3 5.3v9.4c0 2.9-2.4 5.3-5.3 5.3z"/>
					<path id="&lt;Path&gt;" class="s3" d="m2585.4 779.4h-9.3c-3 0-5.4-2.4-5.4-5.3v-9.4c0-2.9 2.4-5.3 5.4-5.3h9.3c3 0 5.4 2.4 5.4 5.3v9.4c0 2.9-2.4 5.3-5.4 5.3z"/>
				</g>
			</g>
			<g id="&lt;Group&gt;">
				<path id="&lt;Path&gt;" class="s3" d="m762.8 1722h-21.6-55.9c-3.5 0-6 3.3-5 6.6l33.9 113.3c0.7 2.2 2.7 3.7 5 3.7h22 21.6 22c2.3 0 4.3-1.5 4.9-3.7l34-113.3c0.9-3.3-1.5-6.6-5-6.6z"/>
				<g id="&lt;Group&gt;">
					<path id="&lt;Path&gt;" class="s9" d="m806.6 1666.8c2.2-5.6 4.9-11.3 9.5-15.1 4.6-3.9 11.5-5.6 16.8-2.8 3.9 2 8 6.4 11.9 4.2 2.4-1.3 2.9-4.5 3.1-7.2 0.5-9 0.4-19.1 6.8-25.4 6.3-6.2 16.5-6.1 25.1-3.9 4 1 8.5 2.4 12.2 0.4 1.9-1 3.3-2.9 4.5-4.8 4.1-6.7 6.7-15.3 13.9-18.5 11.6-5.2 25.1 7.9 37 3.5 4.6-1.7 8.6-6 13.5-5.5 2.5 0.2 4.7 1.7 6.3 3.4 5.8 6 5.8 16.6 0.1 22.6-7.6 8.1-21.5 6.9-29.2 14.9-7.3 7.6-6.7 21.4-15.7 27-7.6 4.8-17.9 0.9-26.3 3.9-6.7 2.4-11.2 8.7-15.5 14.4-4.4 5.7-10 11.4-17.1 11.9-3.8 0.2-7.5-1.1-11.3-0.7-10.8 0.9-16.8 14.6-27.5 16.2-7.2 1.1-13.3-3.7-18.3-8.3-2-1.8-3.8-3.8-4.5-6.5-0.9-3.2-0.2-6.6 0.5-9.8q1.6-7.1 4.2-13.9z"/>
					<path id="&lt;Path&gt;" class="s9" d="m729.3 1644.4c-5.9-4.3-9.5-12.7-6-19.2 1.7-3.1 4.7-5.3 7.1-8 2.4-2.6 4.2-6.4 2.8-9.7-0.7-1.6-2.1-2.8-3.4-4-4.8-4.1-9.7-8.5-12.8-14.1-3-5.6-3.8-12.8-0.5-18.2 2.5-4.1 7-6.5 10.8-9.4 3.8-2.9 7.5-7 7.2-11.8-0.4-6-6.9-11.5-4.5-16.9 2.5-5.7 12.4-5.4 14-11.4 0.8-3-0.9-6-1.7-9-1.6-6.6 2.9-14.2 9.5-15.9 6.7-1.8 14.3 2.7 16.1 9.3 1.3 4.6 0 9.7 1.8 14.1 2.4 5.7 9.1 8.4 12.1 13.9 5.4 9.9-4.4 21.7-3.6 33.1 0.9 11.9 13.7 22.1 10.4 33.7-1.3 4.5-5 8.1-6.2 12.6-1.5 5.4 0.6 11.1 2.1 16.5 1.5 5.4 2.2 11.8-1.4 16.1-2.7 3.2-7.1 4.3-11.2 4.9-11.3 1.8-22.6 1.3-33.6-2.2-3.2-1-6.3-2.4-9-4.4z"/>
					<path id="&lt;Path&gt;" class="s3" d="m751.7 1750.5q-0.4 0-0.7-0.2c-0.7-0.5-0.9-1.4-0.5-2 10.4-16.8 23.4-31.8 38.5-44.5 16.7-14.1 35.8-25.1 54.2-35.9l125.2-72.7c0.7-0.5 1.5-0.2 1.9 0.5 0.4 0.7 0.2 1.6-0.5 2l-125.2 72.7c-18.3 10.7-37.2 21.7-53.7 35.6-14.9 12.5-27.7 27.3-37.9 43.8-0.3 0.4-0.8 0.7-1.3 0.7z"/>
					<path id="&lt;Path&gt;" class="s3" d="m755.7 1744.3c-0.7 0-1.4-0.6-1.4-1.4-2.1-72.8-0.5-172.7 1.2-243.7 0-0.8 0.6-1.5 1.5-1.5 0.8 0.1 1.4 0.7 1.4 1.5-1.7 71-3.3 170.9-1.2 243.6 0 0.8-0.6 1.5-1.4 1.5q0 0-0.1 0z"/>
					<g id="&lt;Group&gt;">
						<path id="&lt;Path&gt;" class="s9" d="m683.6 1705c-8.5-0.9-17.1-6.5-18.6-14.8-1.2-6.7 1.5-15.3-4-19.2-1.9-1.4-4.4-1.7-6.8-1.8-8.6-0.4-18 0.7-25.1-4.3-10.2-7.2-9.2-22.2-10-34.7-0.2-3.2-0.7-6.7-3.1-8.9-2.4-2.4-6.2-2.6-9.5-3.4-12.2-2.7-21.7-14.5-21.9-27.1 0-3.8 0.8-7.8 3.4-10.6 1.7-2 4.1-3.2 6.6-4 7.9-2.4 17.2 0.2 22.6 6.5 3.4 3.9 5.3 9 9.2 12.5 10.8 9.8 28.6 1.7 42.5 6.3 7.8 2.5 14 9.4 15.8 17.4 1.5 6.9 0 14.6 3.4 20.8 5.8 10.8 21.1 10.2 32.4 14.9 2.7 1.1 5.3 2.7 6.9 5.2 1.1 2 1.6 4.3 1.7 6.5 0.8 9.2-2.1 18.5-7.5 25.8-2.4 3.3-5.7 7.1-9.5 8.8-2.9 1.3-6.4 0.8-9.4 1.6-6.4 1.5-12.5 3.3-19.1 2.5z"/>
						<path id="&lt;Path&gt;" class="s3" d="m748.1 1752.6c-0.5 0-1-0.3-1.3-0.8-20-37.5-63.4-86.9-84.2-110.7-6.2-7.1-12.7-14.5-20.2-20.4-6.2-4.9-13.3-9-20.2-13-12.7-7.3-25.8-14.8-33.5-27.5-0.5-0.7-0.2-1.6 0.4-2 0.7-0.4 1.6-0.2 2 0.5 7.4 12 19.6 19 32.5 26.5 7 4 14.2 8.2 20.6 13.2 7.7 6.1 14.3 13.6 20.6 20.8 20.9 23.8 64.4 73.5 84.6 111.2 0.3 0.7 0.1 1.6-0.6 2q-0.4 0.2-0.7 0.2z"/>
					</g>
				</g>
			</g>
			<g id="&lt;Group&gt;">
				<g id="&lt;Group&gt;">
					<path id="&lt;Path&gt;" class="s4" d="m2511 1039.3c0 0-65.9 123.5-76.5 133.5-10.6 9.9-159.9 51-159.9 51l5.9 21.7c0 0 185 4.3 194.4 0 9.4-4.3 63.7-52.5 63.7-52.5z"/>
					<g id="&lt;Group&gt;">
						<path id="&lt;Path&gt;" class="s10" d="m2420 1780.1l4.5 27.2h34.3l-1.9-31.1z"/>
						<path id="&lt;Path&gt;" class="s10" d="m2296.5 1774.7l1.9 36.9 30.6-2.3 4.6-34.4z"/>
						<path id="&lt;Path&gt;" class="s11" d="m2562 1328c0 0-218.1 73-250.6 105.5-32.5 32.5-19.5 342.5-19.5 342.5h46.6l65.6-255.1c0 0 264.3-5.9 292.9-56.1 37.7-66.2 8.9-152.3 8.9-152.3z"/>
						<path id="&lt;Path&gt;" class="s3" d="m2575.4 1345.2c0 0-181.4 105.6-204.4 140.7-23 35 45.7 294.6 45.7 294.6l42.4-4.5 10.9-229.2c0 0 235.1-54.2 251.3-104.3 21.5-66.2-20.2-137.9-20.2-137.9z"/>
						<path id="&lt;Path&gt;" class="s11" d="m2334.2 1802.1c0 0-27.8 7.7-40.6 0l-55.7 29c-7.5 4-12.2 11.7-12.2 20.2v0.6h109.4c3.3 0 5.8-2.9 5.4-6.1z"/>
						<path id="&lt;Path&gt;" class="s3" d="m2460.4 1802.1c0 0-27.8 7.7-40.7 0l-55.6 29c-7.5 4-12.2 11.7-12.2 20.2v0.6h109.4c3.3 0 5.8-2.9 5.4-6.1z"/>
					</g>
					<g id="&lt;Group&gt;">
						<path id="&lt;Path&gt;" class="s10" d="m2564.4 1006.3l-20.9-85.3c0-16.1-3.2-35.3-11.2-57.8-5.3-15-22.3-22.1-36.7-15.5l-40.6 18.6c-11.1 5.1-17 17.3-14.1 29.1 3.4 14 7.5 32.2 8.8 44.4 1.1 10.6 4.1 23.1 11.1 32.3 12.3 16.1 34 21.6 51.8 13.4l5.1 55.4z"/>
						<path id="&lt;Path&gt;" class="s3" d="m2464.1 934.4c-1.3 0-2.5-0.4-3.5-1.3-1.2-1.1-1.8-2.7-1.6-4.3l3.2-33.1c0.1-0.7 0.7-1.2 1.3-1.1 0.6 0.1 1.1 0.6 1.1 1.3l-3.3 33.1c-0.1 0.9 0.3 1.7 0.9 2.4 0.7 0.6 1.5 0.8 2.4 0.7l10.1-1.8c0.6-0.1 1.2 0.3 1.3 0.9 0.2 0.7-0.3 1.3-0.9 1.4l-10.1 1.8q-0.5 0-0.9 0z"/>
						<g id="&lt;Group&gt;">
							<path id="&lt;Path&gt;" class="s5" d="m2488.7 934.4c0 0-12.3 11.2-28.1 15.2 0 0 22.9 14 28.1-15.2z"/>
							<path id="&lt;Path&gt;" class="s3" d="m2469.4 947.7c-0.4 0-0.9-0.3-1.1-0.7-0.2-0.6 0.1-1.3 0.7-1.5 12.3-5.1 19.7-13.5 19.8-13.6 0.4-0.5 1.1-0.5 1.6-0.1 0.5 0.4 0.6 1.2 0.1 1.7-0.3 0.3-7.8 8.8-20.6 14.1q-0.3 0.1-0.5 0.1z"/>
						</g>
						<path id="&lt;Path&gt;" class="s3" d="m2455.6 902c0 2.8-1.8 5-4 5-2.2 0-4.1-2.2-4.1-5 0-2.8 1.9-5 4.1-5 2.2 0 4 2.2 4 5z"/>
						<path id="&lt;Path&gt;" class="s3" d="m2482.8 893.8c0 2.7-1.8 5-4.1 5-2.2 0-4-2.3-4-5 0-2.8 1.8-5.1 4-5.1 2.3 0 4.1 2.3 4.1 5.1z"/>
						<path id="&lt;Path&gt;" class="s3" d="m2440.2 883.8c0 0 44.8 3.7 64.5-11.3 0 0 0.4 29.8 7.5 34.5 7.1 4.8 28.9 0 35.6 30.1 0 0 12-32.9 6.6-71.3-5.5-38.4-29.7-56.8-53.1-54.7-23.4 2.1-109.6 34.1-61.1 72.7z"/>
						<g id="&lt;Group&gt;">
							<path id="&lt;Path&gt;" class="s10" d="m2513.2 894.1c-2.7 11.2 0.5 21.6 7 23.2 6.6 1.5 14.1-6.3 16.8-17.5 2.6-11.2-0.5-21.5-7.1-23.1-6.5-1.6-14 6.2-16.7 17.4z"/>
							<path id="&lt;Path&gt;" class="s3" d="m2519.6 905.6c-0.6 0-1.1-0.5-1.2-1.1-0.6-13.2 10-24.1 10.4-24.5 0.5-0.5 1.2-0.5 1.7 0 0.4 0.4 0.4 1.2 0 1.6-0.1 0.1-10.3 10.6-9.7 22.8 0 0.6-0.5 1.1-1.1 1.2q-0.1 0-0.1 0z"/>
						</g>
					</g>
					<g id="&lt;Group&gt;">
						<path id="&lt;Path&gt;" class="s4" d="m2564.5 993.6c0 0 129.9 54.9 153.6 337.9 0 0-56 34-193 14.3 0 0 3.6-30.6 2.4-43.2-1.3-12.5-42-204.5-16.5-263.3z"/>
					</g>
					<path id="&lt;Path&gt;" class="s3" d="m2512.6 986.7c-0.5 0-0.9-0.3-1.1-0.7-0.2-0.6 0-1.3 0.6-1.5 0.2-0.1 13.2-5.9 20.6-26.1 0.2-0.6 0.9-0.9 1.5-0.7 0.6 0.3 0.9 0.9 0.7 1.5-7.8 21.3-21.3 27.2-21.9 27.4q-0.2 0.1-0.4 0.1z"/>
					<path id="&lt;Path&gt;" class="s4" d="m2561.1 1059.6c0 0-40.8 104.5-52.9 120.4-12.1 16-196.6 45.9-196.6 45.9l10.9 30c0 0 189.2 10.9 212.3 0 23.1-10.9 74.9-48.1 89.4-100.8 14.6-52.7-17.2-119.1-63.1-95.5z"/>
					<path id="&lt;Path&gt;" class="s3" d="m2469 1262c-61 0-141.4-4.6-146.5-4.9-0.7 0-1.2-0.6-1.1-1.2 0-0.7 0.5-1.2 1.2-1.1 1.9 0.1 189.2 10.7 211.7 0.1 19.6-9.3 73.7-45.3 88.8-100.2 0.2-0.6 0.8-0.9 1.4-0.8 0.7 0.2 1 0.8 0.9 1.5-15.4 55.7-70.3 92.2-90.1 101.6-7.9 3.7-34.5 5-66.3 5z"/>
					<path id="&lt;Path&gt;" class="s3" d="m2311.6 1227.1c-0.5 0-1-0.4-1.1-1-0.1-0.6 0.3-1.2 0.9-1.3 63.7-10.4 186.5-33.2 195.9-45.5 11.8-15.6 52.3-119 52.7-120.1 0.3-0.6 0.9-0.9 1.5-0.6 0.6 0.2 0.9 0.9 0.7 1.5-1.7 4.2-41 104.8-53.1 120.6-12.2 16.1-189.7 45.2-197.3 46.4q-0.1 0-0.2 0z"/>
					<path id="&lt;Path&gt;" class="s3" d="m2512.6 1174c-0.6 0-1.1-0.5-1.2-1.1 0-0.8-3.8-82.2 0-113.4 0.1-0.6 0.7-1.1 1.3-1 0.7 0.1 1.1 0.6 1.1 1.3-3.9 31-0.1 112.2 0 113 0 0.6-0.5 1.2-1.2 1.2q0 0 0 0z"/>
					<g id="&lt;Group&gt;">
						<path id="&lt;Path&gt;" class="s10" d="m2315.1 1231c0 0-22.3-5.2-32-1.4-3.5 1.4-42.8 33.1-42.8 33.1h9 49l22.5-11.6z"/>
						<path id="&lt;Path&gt;" class="s10" d="m2275.8 1228.2c0 0-18.5-1.4-24.5 0-6.1 1.4-36.9 15.5-36.9 17.3 0 1.7 3.1 4.1 7.2 3.2 4.1-1 38.8-10.5 38.8-10.5 0 0-19.7 9.7-22.6 13.8-2.9 4.1-5.6 10.7-5.6 10.7h36.4l11.9-17.2z"/>
						<path id="&lt;Path&gt;" class="s3" d="m2241.8 1263.7q-0.1 0-0.3 0c-0.5-0.2-0.8-0.8-0.6-1.3 0-0.1 1.1-3.7 4.6-7.2 3.4-3.4 30.1-21.7 31.2-22.5 0.5-0.3 1.1-0.1 1.4 0.3 0.3 0.5 0.2 1.1-0.2 1.4-0.3 0.2-27.7 19-30.9 22.2-3.2 3.2-4.2 6.4-4.2 6.4-0.2 0.4-0.6 0.7-1 0.7z"/>
					</g>
				</g>
				<g id="&lt;Group&gt;">
					<g id="&lt;Group&gt;">
						<g id="&lt;Group&gt;">
							<path id="&lt;Path&gt;" class="s3" d="m2611.1 1534.9l-76.3 317h6.4l97.2-318.7z"/>
							<path id="&lt;Path&gt;" class="s3" d="m2718.4 1534.9l76.3 317h-6.3l-97.3-318.7z"/>
							<path id="&lt;Path&gt;" class="s12" d="m2544.4 1522.1c0 0 112.1-56.5 165.5-140.8 28-44.3 31.3-160.1 54.4-161.9 23.1-1.7 44.4 35.6 51.6 76.5 7.1 40.9 7.1 198.1-44.5 226.2-51.6 28.1-229.9 40.5-242.1 35.2-12.2-5.3-16.3-17.1 15.1-35.2z"/>
						</g>
						<g id="&lt;Group&gt;">
							<path id="&lt;Path&gt;" class="s12" d="m2593.5 1294.4h-792.9c-5 0-9.1-4.1-9.1-9.1 0-5 4.1-9 9.1-9h792.9c5 0 9.1 4 9.1 9 0 5-4.1 9.1-9.1 9.1z"/>
							<g id="&lt;Group&gt;">
								<path id="&lt;Path&gt;" class="s12" d="m1847 1851.9h-14l107.8-557.5h14z"/>
								<path id="&lt;Path&gt;" class="s12" d="m2547.1 1851.9h14l-107.8-557.5h-14z"/>
							</g>
						</g>
					</g>
					<path id="&lt;Path&gt;" class="s3" d="m2089 1262.7l-91.7-213.8c-0.9-2.2-3.1-3.7-5.5-3.7-4.3 0-7.2 4.4-5.5 8.4l95.4 222.7h7.3 5.8 213.5c3.7 0 6.8-3.1 6.8-6.8 0-3.8-3.1-6.8-6.8-6.8z"/>
				</g>
			</g>
		</g>
		<g id="&lt;Group&gt;">
			<g id="&lt;Group&gt;">
				<path id="&lt;Path&gt;" class="s13" d="m1509.4 1078c0-56.3-45.6-102-101.9-102-56.3 0-102 45.7-102 102 0 30.5 13.5 57.9 34.8 76.6 1.9-29.3 22.5-53.6 50.1-60.8-12.7-6.3-21.5-19.4-21.5-34.5 0-21.3 17.3-38.5 38.6-38.5 21.2 0 38.5 17.2 38.5 38.5 0 15.1-8.7 28.2-21.4 34.5 27.5 7.2 48.2 31.5 50.1 60.8 21.3-18.7 34.7-46.1 34.7-76.6z"/>
				<path id="&lt;Path&gt;" class="s4" d="m1424.6 1093.8c12.7-6.3 21.4-19.4 21.4-34.5 0-21.3-17.3-38.5-38.5-38.5-21.3 0-38.6 17.2-38.6 38.5 0 15.1 8.8 28.2 21.5 34.5-27.6 7.2-48.2 31.5-50.1 60.8 17.9 15.8 41.4 25.3 67.2 25.3 25.7 0 49.2-9.5 67.2-25.3-1.9-29.3-22.6-53.6-50.1-60.8z"/>
			</g>
		</g>
		<path id="&lt;Path&gt;" class="s13" d="m2506.8 399.6c-19.4-2.3-37 11.6-39.3 31 2.3-19.4-11.6-37-31-39.3-19.4-2.3-37 11.6-39.3 31q-0.4 3.4-0.1 6.6c0.7 58.7 60.8 82.6 60.8 82.6 0 0 64.1-9.2 78.5-66.1q1-3.1 1.4-6.5c2.3-19.4-11.6-37-31-39.3z"/>
	</g>
</svg>